<mxfile host="app.diagrams.net" agent="Mozilla/5.0 (Windows NT 10.0; Win64; x64) AppleWebKit/537.36 (KHTML, like Gecko) Chrome/138.0.0.0 YaBrowser/25.8.0.0 Safari/537.36" version="28.1.0">
  <diagram name="Умный дом - Архитектура" id="smart-home-1">
    <mxGraphModel dx="1332376" dy="833401" grid="1" gridSize="10" guides="1" tooltips="1" connect="1" arrows="1" fold="1" page="1" pageScale="1" pageWidth="827" pageHeight="1169" math="0" shadow="0">
      <root>
        <mxCell id="0" />
        <mxCell id="1" parent="0" />
        <mxCell id="pgXqeiuBFOD7ukAEs1Vz-1" value="Пользователь&#xa;Владелец умного дома" style="shape=actor;whiteSpace=wrap;html=1;" parent="1" vertex="1" x="100" y="300" width="60" height="80" />
        <mxCell id="pgXqeiuBFOD7ukAEs1Vz-2" value="Веб и Мобильное приложение&#xa;(React + React Native)" style="shape=rectangle;whiteSpace=wrap;html=1;fillColor=#007acc;strokeColor=#005a9e;fontColor=#ffffff;" parent="1" vertex="1" x="200" y="100" width="200" height="60" />
        <mxCell id="pgXqeiuBFOD7ukAEs1Vz-3" value="API Gateway&#xa;(Python + FastAPI)" style="shape=rectangle;whiteSpace=wrap;html=1;fillColor=#00a859;strokeColor=#007a4d;fontColor=#ffffff;" parent="1" vertex="1" x="200" y="200" width="200" height="60" />
        <mxCell id="pgXqeiuBFOD7ukAEs1Vz-4" value="Управление устройствами&#xa;(Python)" style="shape=rectangle;whiteSpace=wrap;html=1;fillColor=#ff6b00;strokeColor=#cc5600;fontColor=#ffffff;" parent="1" vertex="1" x="200" y="300" width="180" height="50" />
        <mxCell id="pgXqeiuBFOD7ukAEs1Vz-5" value="Автоматизация&#xa;(Python)" style="shape=rectangle;whiteSpace=wrap;html=1;fillColor=#ff6b00;strokeColor=#cc5600;fontColor=#ffffff;" parent="1" vertex="1" x="400" y="300" width="180" height="50" />
        <mxCell id="pgXqeiuBFOD7ukAEs1Vz-6" value="Телеметрия&#xa;(Python)" style="shape=rectangle;whiteSpace=wrap;html=1;fillColor=#ff6b00;strokeColor=#cc5600;fontColor=#ffffff;" parent="1" vertex="1" x="200" y="370" width="180" height="50" />
        <mxCell id="pgXqeiuBFOD7ukAEs1Vz-7" value="Уведомления&#xa;(Python)" style="shape=rectangle;whiteSpace=wrap;html=1;fillColor=#ff6b00;strokeColor=#cc5600;fontColor=#ffffff;" parent="1" vertex="1" x="400" y="370" width="180" height="50" />
        <mxCell id="pgXqeiuBFOD7ukAEs1Vz-8" value="PostgreSQL&#xa;База данных" style="shape=database;whiteSpace=wrap;html=1;fillColor=#4a4a4a;strokeColor=#2a2a2a;fontColor=#ffffff;" parent="1" vertex="1" x="200" y="460" width="120" height="80" />
        <mxCell id="pgXqeiuBFOD7ukAEs1Vz-9" value="ScyllaDB&#xa;NoSQL для телеметрии" style="shape=database;whiteSpace=wrap;html=1;fillColor=#4a4a4a;strokeColor=#2a2a2a;fontColor=#ffffff;" parent="1" vertex="1" x="350" y="460" width="120" height="80" />
        <mxCell id="pgXqeiuBFOD7ukAEs1Vz-10" value="Kafka&#xa;Шина событий" style="shape=queue;whiteSpace=wrap;html=1;fillColor=#d73a49;strokeColor=#b02d3a;fontColor=#ffffff;" parent="1" vertex="1" x="550" y="280" width="120" height="80" />
        <mxCell id="pgXqeiuBFOD7ukAEs1Vz-11" value="Внешние устройства&#xa;Датчики, камеры, ворота" style="shape=rectangle;whiteSpace=wrap;html=1;fillColor=#b3b3b3;strokeColor=#808080;fontColor=#000000;" parent="1" vertex="1" x="600" y="400" width="180" height="60" />
        <mxCell id="pgXqeiuBFOD7ukAEs1Vz-12" value="SMS-шлюз" style="shape=rectangle;whiteSpace=wrap;html=1;fillColor=#b3b3b3;strokeColor=#808080;fontColor=#000000;" parent="1" vertex="1" x="600" y="500" width="180" height="40" />
        <mxCell id="pgXqeiuBFOD7ukAEs1Vz-13" value="HTTPS" style="edgeStyle=orthogonalEdgeStyle;rounded=0;orthogonalLoop=1;jettySize=auto;sourcePerimeterSpacing=4;targetPerimeterSpacing=4;strokeColor=#333333;labelBackgroundColor=#ffffff;" parent="1" source="0" target="1" edge="1">
          <mxGeometry relative="1" as="geometry" />
        </mxCell>
        <mxCell id="pgXqeiuBFOD7ukAEs1Vz-14" value="REST API" style="edgeStyle=orthogonalEdgeStyle;rounded=0;orthogonalLoop=1;jettySize=auto;sourcePerimeterSpacing=4;targetPerimeterSpacing=4;strokeColor=#333333;labelBackgroundColor=#ffffff;" parent="1" source="1" edge="1">
          <mxGeometry relative="1" as="geometry" />
        </mxCell>
        <mxCell id="pgXqeiuBFOD7ukAEs1Vz-15" value="Вызовы /devices, /automation и др." style="edgeStyle=orthogonalEdgeStyle;rounded=0;orthogonalLoop=1;jettySize=auto;sourcePerimeterSpacing=4;targetPerimeterSpacing=4;strokeColor=#333333;labelBackgroundColor=#ffffff;" parent="1" edge="1">
          <mxGeometry relative="1" as="geometry" />
        </mxCell>
        <mxCell id="pgXqeiuBFOD7ukAEs1Vz-16" value="" style="edgeStyle=orthogonalEdgeStyle;rounded=0;orthogonalLoop=1;jettySize=auto;sourcePerimeterSpacing=4;targetPerimeterSpacing=4;strokeColor=#333333;" parent="1" edge="1">
          <mxGeometry relative="1" as="geometry" />
        </mxCell>
        <mxCell id="pgXqeiuBFOD7ukAEs1Vz-17" value="" style="edgeStyle=orthogonalEdgeStyle;rounded=0;orthogonalLoop=1;jettySize=auto;sourcePerimeterSpacing=4;targetPerimeterSpacing=4;strokeColor=#333333;" parent="1" edge="1">
          <mxGeometry relative="1" as="geometry" />
        </mxCell>
        <mxCell id="pgXqeiuBFOD7ukAEs1Vz-18" value="" style="edgeStyle=orthogonalEdgeStyle;rounded=0;orthogonalLoop=1;jettySize=auto;sourcePerimeterSpacing=4;targetPerimeterSpacing=4;strokeColor=#333333;" parent="1" edge="1">
          <mxGeometry relative="1" as="geometry" />
        </mxCell>
        <mxCell id="pgXqeiuBFOD7ukAEs1Vz-19" value="CRUD в БД" style="edgeStyle=orthogonalEdgeStyle;rounded=0;orthogonalLoop=1;jettySize=auto;sourcePerimeterSpacing=4;targetPerimeterSpacing=4;strokeColor=#333333;labelBackgroundColor=#ffffff;" parent="1" edge="1">
          <mxGeometry relative="1" as="geometry" />
        </mxCell>
        <mxCell id="pgXqeiuBFOD7ukAEs1Vz-20" value="CRUD в БД" style="edgeStyle=orthogonalEdgeStyle;rounded=0;orthogonalLoop=1;jettySize=auto;sourcePerimeterSpacing=4;targetPerimeterSpacing=4;strokeColor=#333333;labelBackgroundColor=#ffffff;" parent="1" edge="1">
          <mxGeometry relative="1" as="geometry" />
        </mxCell>
        <mxCell id="pgXqeiuBFOD7ukAEs1Vz-21" value="Запись данных" style="edgeStyle=orthogonalEdgeStyle;rounded=0;orthogonalLoop=1;jettySize=auto;sourcePerimeterSpacing=4;targetPerimeterSpacing=4;strokeColor=#333333;labelBackgroundColor=#ffffff;" parent="1" edge="1">
          <mxGeometry relative="1" as="geometry" />
        </mxCell>
        <mxCell id="pgXqeiuBFOD7ukAEs1Vz-22" value="Публикация событий" style="edgeStyle=orthogonalEdgeStyle;rounded=0;orthogonalLoop=1;jettySize=auto;sourcePerimeterSpacing=4;targetPerimeterSpacing=4;strokeColor=#333333;labelBackgroundColor=#ffffff;" parent="1" edge="1">
          <mxGeometry relative="1" as="geometry" />
        </mxCell>
        <mxCell id="pgXqeiuBFOD7ukAEs1Vz-23" value="Подписка на события" style="edgeStyle=orthogonalEdgeStyle;rounded=0;orthogonalLoop=1;jettySize=auto;sourcePerimeterSpacing=4;targetPerimeterSpacing=4;strokeColor=#333333;labelBackgroundColor=#ffffff;" parent="1" edge="1">
          <mxGeometry relative="1" as="geometry" />
        </mxCell>
        <mxCell id="pgXqeiuBFOD7ukAEs1Vz-24" value="Реагирование на события" style="edgeStyle=orthogonalEdgeStyle;rounded=0;orthogonalLoop=1;jettySize=auto;sourcePerimeterSpacing=4;targetPerimeterSpacing=4;strokeColor=#333333;labelBackgroundColor=#ffffff;" parent="1" edge="1">
          <mxGeometry relative="1" as="geometry" />
        </mxCell>
        <mxCell id="pgXqeiuBFOD7ukAEs1Vz-25" value="Подключение (MQTT/HTTP)" style="edgeStyle=orthogonalEdgeStyle;rounded=0;orthogonalLoop=1;jettySize=auto;sourcePerimeterSpacing=4;targetPerimeterSpacing=4;strokeColor=#333333;labelBackgroundColor=#ffffff;" parent="1" edge="1">
          <mxGeometry relative="1" as="geometry" />
        </mxCell>
        <mxCell id="pgXqeiuBFOD7ukAEs1Vz-26" value="Отправка SMS" style="edgeStyle=orthogonalEdgeStyle;rounded=0;orthogonalLoop=1;jettySize=auto;sourcePerimeterSpacing=4;targetPerimeterSpacing=4;strokeColor=#333333;labelBackgroundColor=#ffffff;" parent="1" edge="1">
          <mxGeometry relative="1" as="geometry" />
        </mxCell>
        <mxCell id="BMIXFoMRrKhgleHeBizc-27" value="" style="whiteSpace=wrap;html=1;aspect=fixed;" parent="1" vertex="1">
          <mxGeometry x="-2930" y="-1990" width="80" height="80" as="geometry" />
        </mxCell>
        <mxCell id="BMIXFoMRrKhgleHeBizc-28" value="" style="ellipse;whiteSpace=wrap;html=1;aspect=fixed;" parent="1" vertex="1">
          <mxGeometry x="-5720" y="-2290" width="80" height="80" as="geometry" />
        </mxCell>
        <mxCell id="NCRFvvMQdqPB_zbK2hEo-1" value="" style="shape=table;startSize=0;container=1;collapsible=0;childLayout=tableLayout;fontSize=16;html=1;whiteSpace=wrap;labelBackgroundColor=default;" vertex="1" parent="1">
          <mxGeometry x="-9040" y="-4580" width="1400" height="632" as="geometry" />
        </mxCell>
        <mxCell id="NCRFvvMQdqPB_zbK2hEo-2" value="" style="shape=tableRow;horizontal=0;startSize=0;swimlaneHead=0;swimlaneBody=0;strokeColor=inherit;top=0;left=0;bottom=0;right=0;collapsible=0;dropTarget=0;fillColor=none;points=[[0,0.5],[1,0.5]];portConstraint=eastwest;fontSize=16;" vertex="1" parent="NCRFvvMQdqPB_zbK2hEo-1">
          <mxGeometry width="1400" height="48" as="geometry" />
        </mxCell>
        <mxCell id="NCRFvvMQdqPB_zbK2hEo-20" style="shape=partialRectangle;html=1;whiteSpace=wrap;connectable=0;strokeColor=inherit;overflow=hidden;fillColor=none;top=0;left=0;bottom=0;right=0;pointerEvents=1;fontSize=16;" vertex="1" parent="NCRFvvMQdqPB_zbK2hEo-2">
          <mxGeometry width="130" height="48" as="geometry">
            <mxRectangle width="130" height="48" as="alternateBounds" />
          </mxGeometry>
        </mxCell>
        <mxCell id="NCRFvvMQdqPB_zbK2hEo-89" value="Взаимодействие&lt;br&gt;с&lt;br&gt;клиентами" style="shape=partialRectangle;html=1;whiteSpace=wrap;connectable=0;strokeColor=inherit;overflow=hidden;fillColor=none;top=0;left=0;bottom=0;right=0;pointerEvents=1;fontSize=12;fontStyle=1" vertex="1" parent="NCRFvvMQdqPB_zbK2hEo-2">
          <mxGeometry x="130" width="140" height="48" as="geometry">
            <mxRectangle width="140" height="48" as="alternateBounds" />
          </mxGeometry>
        </mxCell>
        <mxCell id="NCRFvvMQdqPB_zbK2hEo-80" value="Проведение платежей,&lt;div&gt;открытие счетов&lt;br&gt;&lt;br&gt;&lt;/div&gt;" style="shape=partialRectangle;html=1;whiteSpace=wrap;connectable=0;strokeColor=inherit;overflow=hidden;fillColor=none;top=0;left=0;bottom=0;right=0;pointerEvents=1;fontSize=12;fontStyle=1" vertex="1" parent="NCRFvvMQdqPB_zbK2hEo-2">
          <mxGeometry x="270" width="140" height="48" as="geometry">
            <mxRectangle width="140" height="48" as="alternateBounds" />
          </mxGeometry>
        </mxCell>
        <mxCell id="NCRFvvMQdqPB_zbK2hEo-17" value="Продажи в сети отделений" style="shape=partialRectangle;html=1;whiteSpace=wrap;connectable=0;strokeColor=inherit;overflow=hidden;fillColor=none;top=0;left=0;bottom=0;right=0;pointerEvents=1;fontSize=12;fontStyle=1" vertex="1" parent="NCRFvvMQdqPB_zbK2hEo-2">
          <mxGeometry x="410" width="140" height="48" as="geometry">
            <mxRectangle width="140" height="48" as="alternateBounds" />
          </mxGeometry>
        </mxCell>
        <mxCell id="NCRFvvMQdqPB_zbK2hEo-4" value="Обслуживание депозитных процессов" style="shape=partialRectangle;html=1;whiteSpace=wrap;connectable=0;strokeColor=inherit;overflow=hidden;fillColor=none;top=0;left=0;bottom=0;right=0;pointerEvents=1;fontSize=12;fontStyle=1" vertex="1" parent="NCRFvvMQdqPB_zbK2hEo-2">
          <mxGeometry x="550" width="160" height="48" as="geometry">
            <mxRectangle width="160" height="48" as="alternateBounds" />
          </mxGeometry>
        </mxCell>
        <mxCell id="NCRFvvMQdqPB_zbK2hEo-5" value="Обслуживание кредитных процессов" style="shape=partialRectangle;html=1;whiteSpace=wrap;connectable=0;strokeColor=inherit;overflow=hidden;fillColor=none;top=0;left=0;bottom=0;right=0;pointerEvents=1;fontSize=12;fontStyle=1" vertex="1" parent="NCRFvvMQdqPB_zbK2hEo-2">
          <mxGeometry x="710" width="150" height="48" as="geometry">
            <mxRectangle width="150" height="48" as="alternateBounds" />
          </mxGeometry>
        </mxCell>
        <mxCell id="NCRFvvMQdqPB_zbK2hEo-58" value="Управление договорами" style="shape=partialRectangle;html=1;whiteSpace=wrap;connectable=0;strokeColor=inherit;overflow=hidden;fillColor=none;top=0;left=0;bottom=0;right=0;pointerEvents=1;fontSize=12;fontStyle=1" vertex="1" parent="NCRFvvMQdqPB_zbK2hEo-2">
          <mxGeometry x="860" width="180" height="48" as="geometry">
            <mxRectangle width="180" height="48" as="alternateBounds" />
          </mxGeometry>
        </mxCell>
        <mxCell id="NCRFvvMQdqPB_zbK2hEo-233" value="Продажи через кол-центр" style="shape=partialRectangle;html=1;whiteSpace=wrap;connectable=0;strokeColor=inherit;overflow=hidden;fillColor=none;top=0;left=0;bottom=0;right=0;pointerEvents=1;fontSize=12;fontStyle=1" vertex="1" parent="NCRFvvMQdqPB_zbK2hEo-2">
          <mxGeometry x="1040" width="180" height="48" as="geometry">
            <mxRectangle width="180" height="48" as="alternateBounds" />
          </mxGeometry>
        </mxCell>
        <mxCell id="NCRFvvMQdqPB_zbK2hEo-222" value="Digital-оповещения клиентов" style="shape=partialRectangle;html=1;whiteSpace=wrap;connectable=0;strokeColor=inherit;overflow=hidden;fillColor=none;top=0;left=0;bottom=0;right=0;pointerEvents=1;fontSize=12;fontStyle=1" vertex="1" parent="NCRFvvMQdqPB_zbK2hEo-2">
          <mxGeometry x="1220" width="180" height="48" as="geometry">
            <mxRectangle width="180" height="48" as="alternateBounds" />
          </mxGeometry>
        </mxCell>
        <mxCell id="NCRFvvMQdqPB_zbK2hEo-6" value="" style="shape=tableRow;horizontal=0;startSize=0;swimlaneHead=0;swimlaneBody=0;strokeColor=inherit;top=0;left=0;bottom=0;right=0;collapsible=0;dropTarget=0;fillColor=none;points=[[0,0.5],[1,0.5]];portConstraint=eastwest;fontSize=16;labelBackgroundColor=light-dark(#98c7ec, #ededed);" vertex="1" parent="NCRFvvMQdqPB_zbK2hEo-1">
          <mxGeometry y="48" width="1400" height="55" as="geometry" />
        </mxCell>
        <mxCell id="NCRFvvMQdqPB_zbK2hEo-21" value="Управление&amp;nbsp;&lt;br&gt;обслуживанием&lt;br&gt;&amp;nbsp;в сети отделений" style="shape=partialRectangle;connectable=0;strokeColor=inherit;overflow=hidden;fillColor=none;top=0;left=0;bottom=0;right=0;pointerEvents=1;fontSize=12;whiteSpace=wrap;fontStyle=1;html=1;" vertex="1" parent="NCRFvvMQdqPB_zbK2hEo-6">
          <mxGeometry width="130" height="55" as="geometry">
            <mxRectangle width="130" height="55" as="alternateBounds" />
          </mxGeometry>
        </mxCell>
        <mxCell id="NCRFvvMQdqPB_zbK2hEo-90" style="shape=partialRectangle;html=1;whiteSpace=wrap;connectable=0;overflow=hidden;top=0;left=0;bottom=0;right=0;pointerEvents=1;fontSize=11;fontStyle=0;labelBackgroundColor=default;" vertex="1" parent="NCRFvvMQdqPB_zbK2hEo-6">
          <mxGeometry x="130" width="140" height="55" as="geometry">
            <mxRectangle width="140" height="55" as="alternateBounds" />
          </mxGeometry>
        </mxCell>
        <mxCell id="NCRFvvMQdqPB_zbK2hEo-81" style="shape=partialRectangle;html=1;whiteSpace=wrap;connectable=0;overflow=hidden;top=0;left=0;bottom=0;right=0;pointerEvents=1;fontSize=11;fontStyle=0;labelBackgroundColor=default;" vertex="1" parent="NCRFvvMQdqPB_zbK2hEo-6">
          <mxGeometry x="270" width="140" height="55" as="geometry">
            <mxRectangle width="140" height="55" as="alternateBounds" />
          </mxGeometry>
        </mxCell>
        <mxCell id="NCRFvvMQdqPB_zbK2hEo-18" value="&lt;span style=&quot;color: rgb(29, 29, 32); font-family: system-ui, ui-sans-serif, -apple-system, BlinkMacSystemFont, sans-serif, Inter, NotoSansHans; font-variant-ligatures: normal; font-variant-caps: normal; letter-spacing: -0.28px; orphans: 2; text-align: start; text-indent: 0px; text-transform: none; widows: 2; word-spacing: 0px; -webkit-text-stroke-width: 0px; white-space: nowrap; text-decoration-thickness: initial; text-decoration-style: initial; text-decoration-color: initial; float: none; display: inline !important;&quot;&gt;Сотрудники фронт-офиса&lt;/span&gt;&lt;div&gt;&lt;span style=&quot;color: rgb(29, 29, 32); font-family: system-ui, ui-sans-serif, -apple-system, BlinkMacSystemFont, sans-serif, Inter, NotoSansHans; font-variant-ligatures: normal; font-variant-caps: normal; letter-spacing: -0.28px; orphans: 2; text-align: start; text-indent: 0px; text-transform: none; widows: 2; word-spacing: 0px; -webkit-text-stroke-width: 0px; white-space: nowrap; text-decoration-thickness: initial; text-decoration-style: initial; text-decoration-color: initial; float: none; display: inline !important;&quot;&gt;&amp;nbsp;напрямую работают&lt;/span&gt;&lt;/div&gt;&lt;div&gt;&lt;span style=&quot;color: rgb(29, 29, 32); font-family: system-ui, ui-sans-serif, -apple-system, BlinkMacSystemFont, sans-serif, Inter, NotoSansHans; font-variant-ligatures: normal; font-variant-caps: normal; letter-spacing: -0.28px; orphans: 2; text-align: start; text-indent: 0px; text-transform: none; widows: 2; word-spacing: 0px; -webkit-text-stroke-width: 0px; white-space: nowrap; text-decoration-thickness: initial; text-decoration-style: initial; text-decoration-color: initial; float: none; display: inline !important;&quot;&gt;с АБС для открытия&amp;nbsp;&lt;/span&gt;&lt;/div&gt;&lt;div&gt;&lt;span style=&quot;color: rgb(29, 29, 32); font-family: system-ui, ui-sans-serif, -apple-system, BlinkMacSystemFont, sans-serif, Inter, NotoSansHans; font-variant-ligatures: normal; font-variant-caps: normal; letter-spacing: -0.28px; orphans: 2; text-align: start; text-indent: 0px; text-transform: none; widows: 2; word-spacing: 0px; -webkit-text-stroke-width: 0px; white-space: nowrap; text-decoration-thickness: initial; text-decoration-style: initial; text-decoration-color: initial; float: none; display: inline !important;&quot;&gt;депозитов и счетов&lt;/span&gt;&lt;br&gt;&lt;/div&gt;" style="shape=partialRectangle;html=1;whiteSpace=wrap;connectable=0;overflow=hidden;top=0;left=0;bottom=0;right=0;pointerEvents=1;fontSize=11;fontStyle=0;labelBackgroundColor=default;" vertex="1" parent="NCRFvvMQdqPB_zbK2hEo-6">
          <mxGeometry x="410" width="140" height="55" as="geometry">
            <mxRectangle width="140" height="55" as="alternateBounds" />
          </mxGeometry>
        </mxCell>
        <mxCell id="NCRFvvMQdqPB_zbK2hEo-8" value="&lt;span style=&quot;color: rgb(29, 29, 32); font-family: system-ui, ui-sans-serif, -apple-system, BlinkMacSystemFont, sans-serif, Inter, NotoSansHans; letter-spacing: -0.28px; text-align: start; text-wrap-mode: nowrap; background-color: rgb(255, 255, 255);&quot;&gt;Взаимодействует с&lt;/span&gt;&lt;div&gt;&lt;span style=&quot;color: rgb(29, 29, 32); font-family: system-ui, ui-sans-serif, -apple-system, BlinkMacSystemFont, sans-serif, Inter, NotoSansHans; letter-spacing: -0.28px; text-align: start; text-wrap-mode: nowrap; background-color: rgb(255, 255, 255);&quot;&gt;&amp;nbsp;бэк-офисом для&amp;nbsp;&lt;/span&gt;&lt;/div&gt;&lt;div&gt;&lt;span style=&quot;color: rgb(29, 29, 32); font-family: system-ui, ui-sans-serif, -apple-system, BlinkMacSystemFont, sans-serif, Inter, NotoSansHans; letter-spacing: -0.28px; text-align: start; text-wrap-mode: nowrap; background-color: rgb(255, 255, 255);&quot;&gt;согласования ставок&lt;/span&gt;&lt;/div&gt;&lt;div&gt;&lt;span style=&quot;color: rgb(29, 29, 32); font-family: system-ui, ui-sans-serif, -apple-system, BlinkMacSystemFont, sans-serif, Inter, NotoSansHans; letter-spacing: -0.28px; text-align: start; text-wrap-mode: nowrap; background-color: rgb(255, 255, 255);&quot;&gt;&amp;nbsp;(через письма)&lt;/span&gt;&lt;/div&gt;" style="shape=partialRectangle;html=1;whiteSpace=wrap;connectable=0;overflow=hidden;top=0;left=0;bottom=0;right=0;pointerEvents=1;fontSize=11;fontStyle=0" vertex="1" parent="NCRFvvMQdqPB_zbK2hEo-6">
          <mxGeometry x="550" width="160" height="55" as="geometry">
            <mxRectangle width="160" height="55" as="alternateBounds" />
          </mxGeometry>
        </mxCell>
        <mxCell id="NCRFvvMQdqPB_zbK2hEo-9" value="" style="shape=partialRectangle;html=1;whiteSpace=wrap;connectable=0;strokeColor=inherit;overflow=hidden;fillColor=none;top=0;left=0;bottom=0;right=0;pointerEvents=1;fontSize=16;" vertex="1" parent="NCRFvvMQdqPB_zbK2hEo-6">
          <mxGeometry x="710" width="150" height="55" as="geometry">
            <mxRectangle width="150" height="55" as="alternateBounds" />
          </mxGeometry>
        </mxCell>
        <mxCell id="NCRFvvMQdqPB_zbK2hEo-59" value="&lt;span style=&quot;color: rgb(29, 29, 32); font-family: system-ui, ui-sans-serif, -apple-system, BlinkMacSystemFont, sans-serif, Inter, NotoSansHans; font-variant-ligatures: normal; font-variant-caps: normal; font-weight: 400; letter-spacing: -0.28px; orphans: 2; text-align: start; text-indent: 0px; text-transform: none; widows: 2; word-spacing: 0px; -webkit-text-stroke-width: 0px; white-space: nowrap; background-color: rgb(255, 255, 255); text-decoration-thickness: initial; text-decoration-style: initial; text-decoration-color: initial; float: none; display: inline !important;&quot;&gt;Создает договоры&lt;/span&gt;&lt;div&gt;&lt;span style=&quot;color: rgb(29, 29, 32); font-family: system-ui, ui-sans-serif, -apple-system, BlinkMacSystemFont, sans-serif, Inter, NotoSansHans; font-variant-ligatures: normal; font-variant-caps: normal; font-weight: 400; letter-spacing: -0.28px; orphans: 2; text-align: start; text-indent: 0px; text-transform: none; widows: 2; word-spacing: 0px; -webkit-text-stroke-width: 0px; white-space: nowrap; background-color: rgb(255, 255, 255); text-decoration-thickness: initial; text-decoration-style: initial; text-decoration-color: initial; float: none; display: inline !important;&quot;&gt;&amp;nbsp;в АБС после&amp;nbsp;&lt;/span&gt;&lt;/div&gt;&lt;div&gt;&lt;span style=&quot;color: rgb(29, 29, 32); font-family: system-ui, ui-sans-serif, -apple-system, BlinkMacSystemFont, sans-serif, Inter, NotoSansHans; font-variant-ligatures: normal; font-variant-caps: normal; font-weight: 400; letter-spacing: -0.28px; orphans: 2; text-align: start; text-indent: 0px; text-transform: none; widows: 2; word-spacing: 0px; -webkit-text-stroke-width: 0px; white-space: nowrap; background-color: rgb(255, 255, 255); text-decoration-thickness: initial; text-decoration-style: initial; text-decoration-color: initial; float: none; display: inline !important;&quot;&gt;подписания&amp;nbsp;&lt;/span&gt;&lt;/div&gt;&lt;div&gt;&lt;span style=&quot;color: rgb(29, 29, 32); font-family: system-ui, ui-sans-serif, -apple-system, BlinkMacSystemFont, sans-serif, Inter, NotoSansHans; font-variant-ligatures: normal; font-variant-caps: normal; font-weight: 400; letter-spacing: -0.28px; orphans: 2; text-align: start; text-indent: 0px; text-transform: none; widows: 2; word-spacing: 0px; -webkit-text-stroke-width: 0px; white-space: nowrap; background-color: rgb(255, 255, 255); text-decoration-thickness: initial; text-decoration-style: initial; text-decoration-color: initial; float: none; display: inline !important;&quot;&gt;клиентом&lt;/span&gt;&lt;br&gt;&lt;/div&gt;" style="shape=partialRectangle;html=1;whiteSpace=wrap;connectable=0;strokeColor=inherit;overflow=hidden;fillColor=none;top=0;left=0;bottom=0;right=0;pointerEvents=1;fontSize=11;fontStyle=0" vertex="1" parent="NCRFvvMQdqPB_zbK2hEo-6">
          <mxGeometry x="860" width="180" height="55" as="geometry">
            <mxRectangle width="180" height="55" as="alternateBounds" />
          </mxGeometry>
        </mxCell>
        <mxCell id="NCRFvvMQdqPB_zbK2hEo-234" style="shape=partialRectangle;html=1;whiteSpace=wrap;connectable=0;strokeColor=inherit;overflow=hidden;fillColor=none;top=0;left=0;bottom=0;right=0;pointerEvents=1;fontSize=11;fontStyle=0" vertex="1" parent="NCRFvvMQdqPB_zbK2hEo-6">
          <mxGeometry x="1040" width="180" height="55" as="geometry">
            <mxRectangle width="180" height="55" as="alternateBounds" />
          </mxGeometry>
        </mxCell>
        <mxCell id="NCRFvvMQdqPB_zbK2hEo-223" style="shape=partialRectangle;html=1;whiteSpace=wrap;connectable=0;strokeColor=inherit;overflow=hidden;fillColor=none;top=0;left=0;bottom=0;right=0;pointerEvents=1;fontSize=11;fontStyle=0" vertex="1" parent="NCRFvvMQdqPB_zbK2hEo-6">
          <mxGeometry x="1220" width="180" height="55" as="geometry">
            <mxRectangle width="180" height="55" as="alternateBounds" />
          </mxGeometry>
        </mxCell>
        <mxCell id="NCRFvvMQdqPB_zbK2hEo-10" value="" style="shape=tableRow;horizontal=0;startSize=0;swimlaneHead=0;swimlaneBody=0;strokeColor=inherit;top=0;left=0;bottom=0;right=0;collapsible=0;dropTarget=0;fillColor=none;points=[[0,0.5],[1,0.5]];portConstraint=eastwest;fontSize=16;" vertex="1" parent="NCRFvvMQdqPB_zbK2hEo-1">
          <mxGeometry y="103" width="1400" height="51" as="geometry" />
        </mxCell>
        <mxCell id="NCRFvvMQdqPB_zbK2hEo-22" value="&lt;span style=&quot;--tw-border-spacing-x: 0; --tw-border-spacing-y: 0; --tw-translate-x: 0; --tw-translate-y: 0; --tw-rotate: 0; --tw-skew-x: 0; --tw-skew-y: 0; --tw-scale-x: 1; --tw-scale-y: 1; --tw-pan-x: ; --tw-pan-y: ; --tw-pinch-zoom: ; --tw-scroll-snap-strictness: proximity; --tw-gradient-from-position: ; --tw-gradient-via-position: ; --tw-gradient-to-position: ; --tw-ordinal: ; --tw-slashed-zero: ; --tw-numeric-figure: ; --tw-numeric-spacing: ; --tw-numeric-fraction: ; --tw-ring-inset: ; --tw-ring-offset-width: 0px; --tw-ring-offset-color: #fff; --tw-ring-color: rgb(59 130 246 / .5); --tw-ring-offset-shadow: 0 0 #0000; --tw-ring-shadow: 0 0 #0000; --tw-shadow: 0 0 #0000; --tw-shadow-colored: 0 0 #0000; --tw-blur: ; --tw-brightness: ; --tw-contrast: ; --tw-grayscale: ; --tw-hue-rotate: ; --tw-invert: ; --tw-saturate: ; --tw-sepia: ; --tw-drop-shadow: ; --tw-backdrop-blur: ; --tw-backdrop-brightness: ; --tw-backdrop-contrast: ; --tw-backdrop-grayscale: ; --tw-backdrop-hue-rotate: ; --tw-backdrop-invert: ; --tw-backdrop-opacity: ; --tw-backdrop-saturate: ; --tw-backdrop-sepia: ; --tw-contain-size: ; --tw-contain-layout: ; --tw-contain-paint: ; --tw-contain-style: ; box-sizing: border-box; border-top: 0px solid rgb(227, 227, 227); border-bottom: 0px solid rgb(227, 227, 227); color: rgb(17, 24, 39); margin: 12px 0px; line-height: 1.75; letter-spacing: 0.02em; font-family: system-ui, ui-sans-serif, -apple-system, BlinkMacSystemFont, sans-serif, Inter, NotoSansHans; text-align: start; text-wrap-mode: nowrap; background-color: rgb(255, 255, 255); border-right: none !important; border-left: none !important;&quot;&gt;Управление IT&lt;/span&gt;" style="shape=partialRectangle;html=1;whiteSpace=wrap;connectable=0;strokeColor=inherit;overflow=hidden;fillColor=none;top=0;left=0;bottom=0;right=0;pointerEvents=1;fontSize=12;fontStyle=1" vertex="1" parent="NCRFvvMQdqPB_zbK2hEo-10">
          <mxGeometry width="130" height="51" as="geometry">
            <mxRectangle width="130" height="51" as="alternateBounds" />
          </mxGeometry>
        </mxCell>
        <mxCell id="NCRFvvMQdqPB_zbK2hEo-91" style="shape=partialRectangle;html=1;whiteSpace=wrap;connectable=0;strokeColor=inherit;overflow=hidden;fillColor=none;top=0;left=0;bottom=0;right=0;pointerEvents=1;fontSize=16;" vertex="1" parent="NCRFvvMQdqPB_zbK2hEo-10">
          <mxGeometry x="130" width="140" height="51" as="geometry">
            <mxRectangle width="140" height="51" as="alternateBounds" />
          </mxGeometry>
        </mxCell>
        <mxCell id="NCRFvvMQdqPB_zbK2hEo-82" style="shape=partialRectangle;html=1;whiteSpace=wrap;connectable=0;strokeColor=inherit;overflow=hidden;fillColor=none;top=0;left=0;bottom=0;right=0;pointerEvents=1;fontSize=16;" vertex="1" parent="NCRFvvMQdqPB_zbK2hEo-10">
          <mxGeometry x="270" width="140" height="51" as="geometry">
            <mxRectangle width="140" height="51" as="alternateBounds" />
          </mxGeometry>
        </mxCell>
        <mxCell id="NCRFvvMQdqPB_zbK2hEo-19" style="shape=partialRectangle;html=1;whiteSpace=wrap;connectable=0;strokeColor=inherit;overflow=hidden;fillColor=none;top=0;left=0;bottom=0;right=0;pointerEvents=1;fontSize=16;" vertex="1" parent="NCRFvvMQdqPB_zbK2hEo-10">
          <mxGeometry x="410" width="140" height="51" as="geometry">
            <mxRectangle width="140" height="51" as="alternateBounds" />
          </mxGeometry>
        </mxCell>
        <mxCell id="NCRFvvMQdqPB_zbK2hEo-12" value="&lt;br&gt;&lt;span style=&quot;color: rgb(29, 29, 32); font-family: system-ui, ui-sans-serif, -apple-system, BlinkMacSystemFont, sans-serif, Inter, NotoSansHans; font-variant-ligatures: normal; font-variant-caps: normal; font-weight: 400; letter-spacing: -0.28px; orphans: 2; text-align: start; text-indent: 0px; text-transform: none; widows: 2; word-spacing: 0px; -webkit-text-stroke-width: 0px; white-space: nowrap; background-color: rgb(255, 255, 255); text-decoration-thickness: initial; text-decoration-style: initial; text-decoration-color: initial; float: none; display: inline !important;&quot;&gt;&lt;span&gt;&amp;nbsp;&lt;/span&gt;Поддерживает АБС,&amp;nbsp;&lt;/span&gt;&lt;div&gt;&lt;span style=&quot;color: rgb(29, 29, 32); font-family: system-ui, ui-sans-serif, -apple-system, BlinkMacSystemFont, sans-serif, Inter, NotoSansHans; font-variant-ligatures: normal; font-variant-caps: normal; font-weight: 400; letter-spacing: -0.28px; orphans: 2; text-align: start; text-indent: 0px; text-transform: none; widows: 2; word-spacing: 0px; -webkit-text-stroke-width: 0px; white-space: nowrap; background-color: rgb(255, 255, 255); text-decoration-thickness: initial; text-decoration-style: initial; text-decoration-color: initial; float: none; display: inline !important;&quot;&gt;где происходят&lt;/span&gt;&lt;/div&gt;&lt;div&gt;&lt;span style=&quot;color: rgb(29, 29, 32); font-family: system-ui, ui-sans-serif, -apple-system, BlinkMacSystemFont, sans-serif, Inter, NotoSansHans; font-variant-ligatures: normal; font-variant-caps: normal; font-weight: 400; letter-spacing: -0.28px; orphans: 2; text-align: start; text-indent: 0px; text-transform: none; widows: 2; word-spacing: 0px; -webkit-text-stroke-width: 0px; white-space: nowrap; background-color: rgb(255, 255, 255); text-decoration-thickness: initial; text-decoration-style: initial; text-decoration-color: initial; float: none; display: inline !important;&quot;&gt;&amp;nbsp;все операции&lt;/span&gt;&lt;br&gt;&lt;br&gt;&lt;/div&gt;" style="shape=partialRectangle;html=1;whiteSpace=wrap;connectable=0;strokeColor=inherit;overflow=hidden;fillColor=none;top=0;left=0;bottom=0;right=0;pointerEvents=1;fontSize=11;fontStyle=0" vertex="1" parent="NCRFvvMQdqPB_zbK2hEo-10">
          <mxGeometry x="550" width="160" height="51" as="geometry">
            <mxRectangle width="160" height="51" as="alternateBounds" />
          </mxGeometry>
        </mxCell>
        <mxCell id="NCRFvvMQdqPB_zbK2hEo-13" value="&lt;div&gt;&lt;span style=&quot;text-wrap-mode: nowrap; color: rgb(29, 29, 32); font-family: system-ui, ui-sans-serif, -apple-system, BlinkMacSystemFont, sans-serif, Inter, NotoSansHans; letter-spacing: -0.28px; text-align: start; background-color: rgb(255, 255, 255); float: none; display: inline !important;&quot;&gt;Поддерживает АБС,&amp;nbsp;&lt;/span&gt;&lt;div&gt;&lt;span style=&quot;color: rgb(29, 29, 32); font-family: system-ui, ui-sans-serif, -apple-system, BlinkMacSystemFont, sans-serif, Inter, NotoSansHans; letter-spacing: -0.28px; text-align: start; text-wrap-mode: nowrap; background-color: rgb(255, 255, 255); float: none; display: inline !important;&quot;&gt;где происходят&lt;/span&gt;&lt;/div&gt;&lt;div&gt;&lt;span style=&quot;color: rgb(29, 29, 32); font-family: system-ui, ui-sans-serif, -apple-system, BlinkMacSystemFont, sans-serif, Inter, NotoSansHans; letter-spacing: -0.28px; text-align: start; text-wrap-mode: nowrap; background-color: rgb(255, 255, 255); float: none; display: inline !important;&quot;&gt;&amp;nbsp;все операции&lt;/span&gt;&lt;/div&gt;&lt;/div&gt;" style="shape=partialRectangle;html=1;whiteSpace=wrap;connectable=0;strokeColor=inherit;overflow=hidden;fillColor=none;top=0;left=0;bottom=0;right=0;pointerEvents=1;fontSize=11;align=center;fontStyle=0" vertex="1" parent="NCRFvvMQdqPB_zbK2hEo-10">
          <mxGeometry x="710" width="150" height="51" as="geometry">
            <mxRectangle width="150" height="51" as="alternateBounds" />
          </mxGeometry>
        </mxCell>
        <mxCell id="NCRFvvMQdqPB_zbK2hEo-60" value="&lt;span style=&quot;color: rgb(29, 29, 32); font-family: system-ui, ui-sans-serif, -apple-system, BlinkMacSystemFont, sans-serif, Inter, NotoSansHans; letter-spacing: -0.28px; text-align: start; text-wrap-mode: nowrap; background-color: rgb(255, 255, 255);&quot;&gt;Поддерживает АБС&lt;/span&gt;" style="shape=partialRectangle;html=1;whiteSpace=wrap;connectable=0;strokeColor=inherit;overflow=hidden;fillColor=none;top=0;left=0;bottom=0;right=0;pointerEvents=1;fontSize=11;fontStyle=0" vertex="1" parent="NCRFvvMQdqPB_zbK2hEo-10">
          <mxGeometry x="860" width="180" height="51" as="geometry">
            <mxRectangle width="180" height="51" as="alternateBounds" />
          </mxGeometry>
        </mxCell>
        <mxCell id="NCRFvvMQdqPB_zbK2hEo-235" style="shape=partialRectangle;html=1;whiteSpace=wrap;connectable=0;strokeColor=inherit;overflow=hidden;fillColor=none;top=0;left=0;bottom=0;right=0;pointerEvents=1;fontSize=11;fontStyle=0" vertex="1" parent="NCRFvvMQdqPB_zbK2hEo-10">
          <mxGeometry x="1040" width="180" height="51" as="geometry">
            <mxRectangle width="180" height="51" as="alternateBounds" />
          </mxGeometry>
        </mxCell>
        <mxCell id="NCRFvvMQdqPB_zbK2hEo-224" style="shape=partialRectangle;html=1;whiteSpace=wrap;connectable=0;strokeColor=inherit;overflow=hidden;fillColor=none;top=0;left=0;bottom=0;right=0;pointerEvents=1;fontSize=11;fontStyle=0" vertex="1" parent="NCRFvvMQdqPB_zbK2hEo-10">
          <mxGeometry x="1220" width="180" height="51" as="geometry">
            <mxRectangle width="180" height="51" as="alternateBounds" />
          </mxGeometry>
        </mxCell>
        <mxCell id="NCRFvvMQdqPB_zbK2hEo-23" style="shape=tableRow;horizontal=0;startSize=0;swimlaneHead=0;swimlaneBody=0;strokeColor=inherit;top=0;left=0;bottom=0;right=0;collapsible=0;dropTarget=0;fillColor=none;points=[[0,0.5],[1,0.5]];portConstraint=eastwest;fontSize=16;" vertex="1" parent="NCRFvvMQdqPB_zbK2hEo-1">
          <mxGeometry y="154" width="1400" height="66" as="geometry" />
        </mxCell>
        <mxCell id="NCRFvvMQdqPB_zbK2hEo-24" value="Управление обслуживанием депозитных продуктов" style="shape=partialRectangle;html=1;whiteSpace=wrap;connectable=0;strokeColor=inherit;overflow=hidden;fillColor=none;top=0;left=0;bottom=0;right=0;pointerEvents=1;fontSize=12;fontStyle=1" vertex="1" parent="NCRFvvMQdqPB_zbK2hEo-23">
          <mxGeometry width="130" height="66" as="geometry">
            <mxRectangle width="130" height="66" as="alternateBounds" />
          </mxGeometry>
        </mxCell>
        <mxCell id="NCRFvvMQdqPB_zbK2hEo-92" style="shape=partialRectangle;html=1;whiteSpace=wrap;connectable=0;strokeColor=inherit;overflow=hidden;fillColor=none;top=0;left=0;bottom=0;right=0;pointerEvents=1;fontSize=16;" vertex="1" parent="NCRFvvMQdqPB_zbK2hEo-23">
          <mxGeometry x="130" width="140" height="66" as="geometry">
            <mxRectangle width="140" height="66" as="alternateBounds" />
          </mxGeometry>
        </mxCell>
        <mxCell id="NCRFvvMQdqPB_zbK2hEo-83" style="shape=partialRectangle;html=1;whiteSpace=wrap;connectable=0;strokeColor=inherit;overflow=hidden;fillColor=none;top=0;left=0;bottom=0;right=0;pointerEvents=1;fontSize=16;" vertex="1" parent="NCRFvvMQdqPB_zbK2hEo-23">
          <mxGeometry x="270" width="140" height="66" as="geometry">
            <mxRectangle width="140" height="66" as="alternateBounds" />
          </mxGeometry>
        </mxCell>
        <mxCell id="NCRFvvMQdqPB_zbK2hEo-25" style="shape=partialRectangle;html=1;whiteSpace=wrap;connectable=0;strokeColor=inherit;overflow=hidden;fillColor=none;top=0;left=0;bottom=0;right=0;pointerEvents=1;fontSize=16;" vertex="1" parent="NCRFvvMQdqPB_zbK2hEo-23">
          <mxGeometry x="410" width="140" height="66" as="geometry">
            <mxRectangle width="140" height="66" as="alternateBounds" />
          </mxGeometry>
        </mxCell>
        <mxCell id="NCRFvvMQdqPB_zbK2hEo-28" value="&lt;span style=&quot;color: rgb(29, 29, 32); font-family: system-ui, ui-sans-serif, -apple-system, BlinkMacSystemFont, sans-serif, Inter, NotoSansHans; font-variant-ligatures: normal; font-variant-caps: normal; font-weight: 400; letter-spacing: -0.28px; orphans: 2; text-align: start; text-indent: 0px; text-transform: none; widows: 2; word-spacing: 0px; -webkit-text-stroke-width: 0px; white-space: nowrap; background-color: rgb(255, 255, 255); text-decoration-thickness: initial; text-decoration-style: initial; text-decoration-color: initial; float: none; display: inline !important;&quot;&gt;рассчитывает&amp;nbsp;&lt;/span&gt;&lt;div&gt;&lt;span style=&quot;color: rgb(29, 29, 32); font-family: system-ui, ui-sans-serif, -apple-system, BlinkMacSystemFont, sans-serif, Inter, NotoSansHans; font-variant-ligatures: normal; font-variant-caps: normal; font-weight: 400; letter-spacing: -0.28px; orphans: 2; text-align: start; text-indent: 0px; text-transform: none; widows: 2; word-spacing: 0px; -webkit-text-stroke-width: 0px; white-space: nowrap; background-color: rgb(255, 255, 255); text-decoration-thickness: initial; text-decoration-style: initial; text-decoration-color: initial; float: none; display: inline !important;&quot;&gt;ставки в Excel,&lt;/span&gt;&lt;/div&gt;&lt;div&gt;&lt;span style=&quot;color: rgb(29, 29, 32); font-family: system-ui, ui-sans-serif, -apple-system, BlinkMacSystemFont, sans-serif, Inter, NotoSansHans; font-variant-ligatures: normal; font-variant-caps: normal; font-weight: 400; letter-spacing: -0.28px; orphans: 2; text-align: start; text-indent: 0px; text-transform: none; widows: 2; word-spacing: 0px; -webkit-text-stroke-width: 0px; white-space: nowrap; background-color: rgb(255, 255, 255); text-decoration-thickness: initial; text-decoration-style: initial; text-decoration-color: initial; float: none; display: inline !important;&quot;&gt;анализирует риск,&amp;nbsp;&lt;/span&gt;&lt;/div&gt;&lt;div&gt;&lt;span style=&quot;color: rgb(29, 29, 32); font-family: system-ui, ui-sans-serif, -apple-system, BlinkMacSystemFont, sans-serif, Inter, NotoSansHans; font-variant-ligatures: normal; font-variant-caps: normal; font-weight: 400; letter-spacing: -0.28px; orphans: 2; text-align: start; text-indent: 0px; text-transform: none; widows: 2; word-spacing: 0px; -webkit-text-stroke-width: 0px; white-space: nowrap; background-color: rgb(255, 255, 255); text-decoration-thickness: initial; text-decoration-style: initial; text-decoration-color: initial; float: none; display: inline !important;&quot;&gt;определяет специальные&lt;/span&gt;&lt;/div&gt;&lt;div&gt;&lt;span style=&quot;color: rgb(29, 29, 32); font-family: system-ui, ui-sans-serif, -apple-system, BlinkMacSystemFont, sans-serif, Inter, NotoSansHans; font-variant-ligatures: normal; font-variant-caps: normal; font-weight: 400; letter-spacing: -0.28px; orphans: 2; text-align: start; text-indent: 0px; text-transform: none; widows: 2; word-spacing: 0px; -webkit-text-stroke-width: 0px; white-space: nowrap; background-color: rgb(255, 255, 255); text-decoration-thickness: initial; text-decoration-style: initial; text-decoration-color: initial; float: none; display: inline !important;&quot;&gt;ставки&lt;/span&gt;&lt;br&gt;&lt;/div&gt;" style="shape=partialRectangle;html=1;whiteSpace=wrap;connectable=0;overflow=hidden;top=0;left=0;bottom=0;right=0;pointerEvents=1;fontSize=11;fontStyle=0" vertex="1" parent="NCRFvvMQdqPB_zbK2hEo-23">
          <mxGeometry x="550" width="160" height="66" as="geometry">
            <mxRectangle width="160" height="66" as="alternateBounds" />
          </mxGeometry>
        </mxCell>
        <mxCell id="NCRFvvMQdqPB_zbK2hEo-29" style="shape=partialRectangle;html=1;whiteSpace=wrap;connectable=0;strokeColor=inherit;overflow=hidden;fillColor=none;top=0;left=0;bottom=0;right=0;pointerEvents=1;fontSize=16;" vertex="1" parent="NCRFvvMQdqPB_zbK2hEo-23">
          <mxGeometry x="710" width="150" height="66" as="geometry">
            <mxRectangle width="150" height="66" as="alternateBounds" />
          </mxGeometry>
        </mxCell>
        <mxCell id="NCRFvvMQdqPB_zbK2hEo-61" value="&lt;br&gt;&lt;span style=&quot;color: rgb(29, 29, 32); font-family: system-ui, ui-sans-serif, -apple-system, BlinkMacSystemFont, sans-serif, Inter, NotoSansHans; font-variant-ligatures: normal; font-variant-caps: normal; font-weight: 400; letter-spacing: -0.28px; orphans: 2; text-align: start; text-indent: 0px; text-transform: none; widows: 2; word-spacing: 0px; -webkit-text-stroke-width: 0px; white-space: nowrap; background-color: rgb(255, 255, 255); text-decoration-thickness: initial; text-decoration-style: initial; text-decoration-color: initial; float: none; display: inline !important;&quot;&gt;Отвечает за управление&lt;/span&gt;&lt;div&gt;&lt;span style=&quot;color: rgb(29, 29, 32); font-family: system-ui, ui-sans-serif, -apple-system, BlinkMacSystemFont, sans-serif, Inter, NotoSansHans; font-variant-ligatures: normal; font-variant-caps: normal; font-weight: 400; letter-spacing: -0.28px; orphans: 2; text-align: start; text-indent: 0px; text-transform: none; widows: 2; word-spacing: 0px; -webkit-text-stroke-width: 0px; white-space: nowrap; background-color: rgb(255, 255, 255); text-decoration-thickness: initial; text-decoration-style: initial; text-decoration-color: initial; float: none; display: inline !important;&quot;&gt;&amp;nbsp;договорами по депозитам&lt;/span&gt;&lt;br&gt;&lt;br&gt;&lt;/div&gt;" style="shape=partialRectangle;html=1;whiteSpace=wrap;connectable=0;overflow=hidden;top=0;left=0;bottom=0;right=0;pointerEvents=1;fontSize=11;fontStyle=0" vertex="1" parent="NCRFvvMQdqPB_zbK2hEo-23">
          <mxGeometry x="860" width="180" height="66" as="geometry">
            <mxRectangle width="180" height="66" as="alternateBounds" />
          </mxGeometry>
        </mxCell>
        <mxCell id="NCRFvvMQdqPB_zbK2hEo-236" style="shape=partialRectangle;html=1;whiteSpace=wrap;connectable=0;overflow=hidden;top=0;left=0;bottom=0;right=0;pointerEvents=1;fontSize=11;fontStyle=0" vertex="1" parent="NCRFvvMQdqPB_zbK2hEo-23">
          <mxGeometry x="1040" width="180" height="66" as="geometry">
            <mxRectangle width="180" height="66" as="alternateBounds" />
          </mxGeometry>
        </mxCell>
        <mxCell id="NCRFvvMQdqPB_zbK2hEo-225" style="shape=partialRectangle;html=1;whiteSpace=wrap;connectable=0;overflow=hidden;top=0;left=0;bottom=0;right=0;pointerEvents=1;fontSize=11;fontStyle=0" vertex="1" parent="NCRFvvMQdqPB_zbK2hEo-23">
          <mxGeometry x="1220" width="180" height="66" as="geometry">
            <mxRectangle width="180" height="66" as="alternateBounds" />
          </mxGeometry>
        </mxCell>
        <mxCell id="NCRFvvMQdqPB_zbK2hEo-30" style="shape=tableRow;horizontal=0;startSize=0;swimlaneHead=0;swimlaneBody=0;strokeColor=inherit;top=0;left=0;bottom=0;right=0;collapsible=0;dropTarget=0;fillColor=none;points=[[0,0.5],[1,0.5]];portConstraint=eastwest;fontSize=16;" vertex="1" parent="NCRFvvMQdqPB_zbK2hEo-1">
          <mxGeometry y="220" width="1400" height="59" as="geometry" />
        </mxCell>
        <mxCell id="NCRFvvMQdqPB_zbK2hEo-31" value="Управление&amp;nbsp;&lt;br&gt;обслуживанием&amp;nbsp;&lt;br&gt;кредитных&amp;nbsp;&lt;br&gt;продуктов" style="shape=partialRectangle;whiteSpace=wrap;connectable=0;strokeColor=inherit;overflow=hidden;fillColor=none;top=0;left=0;bottom=0;right=0;pointerEvents=1;fontSize=12;fontStyle=1;html=1;" vertex="1" parent="NCRFvvMQdqPB_zbK2hEo-30">
          <mxGeometry width="130" height="59" as="geometry">
            <mxRectangle width="130" height="59" as="alternateBounds" />
          </mxGeometry>
        </mxCell>
        <mxCell id="NCRFvvMQdqPB_zbK2hEo-93" style="shape=partialRectangle;html=1;whiteSpace=wrap;connectable=0;strokeColor=inherit;overflow=hidden;fillColor=none;top=0;left=0;bottom=0;right=0;pointerEvents=1;fontSize=16;" vertex="1" parent="NCRFvvMQdqPB_zbK2hEo-30">
          <mxGeometry x="130" width="140" height="59" as="geometry">
            <mxRectangle width="140" height="59" as="alternateBounds" />
          </mxGeometry>
        </mxCell>
        <mxCell id="NCRFvvMQdqPB_zbK2hEo-84" style="shape=partialRectangle;html=1;whiteSpace=wrap;connectable=0;strokeColor=inherit;overflow=hidden;fillColor=none;top=0;left=0;bottom=0;right=0;pointerEvents=1;fontSize=16;" vertex="1" parent="NCRFvvMQdqPB_zbK2hEo-30">
          <mxGeometry x="270" width="140" height="59" as="geometry">
            <mxRectangle width="140" height="59" as="alternateBounds" />
          </mxGeometry>
        </mxCell>
        <mxCell id="NCRFvvMQdqPB_zbK2hEo-32" style="shape=partialRectangle;html=1;whiteSpace=wrap;connectable=0;strokeColor=inherit;overflow=hidden;fillColor=none;top=0;left=0;bottom=0;right=0;pointerEvents=1;fontSize=16;" vertex="1" parent="NCRFvvMQdqPB_zbK2hEo-30">
          <mxGeometry x="410" width="140" height="59" as="geometry">
            <mxRectangle width="140" height="59" as="alternateBounds" />
          </mxGeometry>
        </mxCell>
        <mxCell id="NCRFvvMQdqPB_zbK2hEo-35" value="&lt;span style=&quot;color: rgba(0, 0, 0, 0.85); font-family: &amp;quot;YS Text&amp;quot;, sans-serif; text-align: left; white-space-collapse: preserve-breaks; background-color: rgb(255, 255, 255);&quot;&gt;анализирует текущий&lt;/span&gt;&lt;div&gt;&lt;span style=&quot;color: rgba(0, 0, 0, 0.85); font-family: &amp;quot;YS Text&amp;quot;, sans-serif; text-align: left; white-space-collapse: preserve-breaks; background-color: rgb(255, 255, 255);&quot;&gt;&amp;nbsp;уровень кредитного&lt;/span&gt;&lt;/div&gt;&lt;div&gt;&lt;span style=&quot;color: rgba(0, 0, 0, 0.85); font-family: &amp;quot;YS Text&amp;quot;, sans-serif; text-align: left; white-space-collapse: preserve-breaks; background-color: rgb(255, 255, 255);&quot;&gt;&amp;nbsp;риска, передает в бэк-офис&lt;/span&gt;&lt;/div&gt;" style="shape=partialRectangle;html=1;whiteSpace=wrap;connectable=0;strokeColor=inherit;overflow=hidden;fillColor=none;top=0;left=0;bottom=0;right=0;pointerEvents=1;fontSize=11;" vertex="1" parent="NCRFvvMQdqPB_zbK2hEo-30">
          <mxGeometry x="550" width="160" height="59" as="geometry">
            <mxRectangle width="160" height="59" as="alternateBounds" />
          </mxGeometry>
        </mxCell>
        <mxCell id="NCRFvvMQdqPB_zbK2hEo-36" value="&lt;br&gt;&lt;span style=&quot;color: rgb(29, 29, 32); font-family: system-ui, ui-sans-serif, -apple-system, BlinkMacSystemFont, sans-serif, Inter, NotoSansHans; font-variant-ligatures: normal; font-variant-caps: normal; font-weight: 400; letter-spacing: -0.28px; orphans: 2; text-align: start; text-indent: 0px; text-transform: none; widows: 2; word-spacing: 0px; -webkit-text-stroke-width: 0px; white-space: nowrap; background-color: rgb(255, 255, 255); text-decoration-thickness: initial; text-decoration-style: initial; text-decoration-color: initial; float: none; display: inline !important;&quot;&gt;Специализируется на&lt;/span&gt;&lt;div&gt;&lt;span style=&quot;color: rgb(29, 29, 32); font-family: system-ui, ui-sans-serif, -apple-system, BlinkMacSystemFont, sans-serif, Inter, NotoSansHans; font-variant-ligatures: normal; font-variant-caps: normal; font-weight: 400; letter-spacing: -0.28px; orphans: 2; text-align: start; text-indent: 0px; text-transform: none; widows: 2; word-spacing: 0px; -webkit-text-stroke-width: 0px; white-space: nowrap; background-color: rgb(255, 255, 255); text-decoration-thickness: initial; text-decoration-style: initial; text-decoration-color: initial; float: none; display: inline !important;&quot;&gt;&amp;nbsp;кредитах:&lt;/span&gt;&lt;div&gt;&lt;span style=&quot;color: rgb(29, 29, 32); font-family: system-ui, ui-sans-serif, -apple-system, BlinkMacSystemFont, sans-serif, Inter, NotoSansHans; font-variant-ligatures: normal; font-variant-caps: normal; font-weight: 400; letter-spacing: -0.28px; orphans: 2; text-align: start; text-indent: 0px; text-transform: none; widows: 2; word-spacing: 0px; -webkit-text-stroke-width: 0px; white-space: nowrap; background-color: rgb(255, 255, 255); text-decoration-thickness: initial; text-decoration-style: initial; text-decoration-color: initial; float: none; display: inline !important;&quot;&gt;&amp;nbsp;анализирует кредитный&amp;nbsp;&lt;/span&gt;&lt;/div&gt;&lt;div&gt;&lt;span style=&quot;color: rgb(29, 29, 32); font-family: system-ui, ui-sans-serif, -apple-system, BlinkMacSystemFont, sans-serif, Inter, NotoSansHans; font-variant-ligatures: normal; font-variant-caps: normal; font-weight: 400; letter-spacing: -0.28px; orphans: 2; text-align: start; text-indent: 0px; text-transform: none; widows: 2; word-spacing: 0px; -webkit-text-stroke-width: 0px; white-space: nowrap; background-color: rgb(255, 255, 255); text-decoration-thickness: initial; text-decoration-style: initial; text-decoration-color: initial; float: none; display: inline !important;&quot;&gt;риск клиента в АБС&lt;/span&gt;&lt;br&gt;&lt;br&gt;&lt;/div&gt;&lt;/div&gt;" style="shape=partialRectangle;html=1;whiteSpace=wrap;connectable=0;overflow=hidden;top=0;left=0;bottom=0;right=0;pointerEvents=1;fontSize=11;fontStyle=0" vertex="1" parent="NCRFvvMQdqPB_zbK2hEo-30">
          <mxGeometry x="710" width="150" height="59" as="geometry">
            <mxRectangle width="150" height="59" as="alternateBounds" />
          </mxGeometry>
        </mxCell>
        <mxCell id="NCRFvvMQdqPB_zbK2hEo-62" value="&lt;span style=&quot;color: rgb(29, 29, 32); font-family: system-ui, ui-sans-serif, -apple-system, BlinkMacSystemFont, sans-serif, Inter, NotoSansHans; letter-spacing: -0.28px; text-align: start; text-wrap-mode: nowrap; background-color: rgb(255, 255, 255);&quot;&gt;Отвечает за управление&amp;nbsp;&lt;/span&gt;&lt;div&gt;&lt;span style=&quot;color: rgb(29, 29, 32); font-family: system-ui, ui-sans-serif, -apple-system, BlinkMacSystemFont, sans-serif, Inter, NotoSansHans; letter-spacing: -0.28px; text-align: start; text-wrap-mode: nowrap; background-color: rgb(255, 255, 255);&quot;&gt;договорами по кредитам&lt;/span&gt;&lt;/div&gt;" style="shape=partialRectangle;html=1;whiteSpace=wrap;connectable=0;overflow=hidden;top=0;left=0;bottom=0;right=0;pointerEvents=1;fontSize=11;fontStyle=0" vertex="1" parent="NCRFvvMQdqPB_zbK2hEo-30">
          <mxGeometry x="860" width="180" height="59" as="geometry">
            <mxRectangle width="180" height="59" as="alternateBounds" />
          </mxGeometry>
        </mxCell>
        <mxCell id="NCRFvvMQdqPB_zbK2hEo-237" style="shape=partialRectangle;html=1;whiteSpace=wrap;connectable=0;overflow=hidden;top=0;left=0;bottom=0;right=0;pointerEvents=1;fontSize=11;fontStyle=0" vertex="1" parent="NCRFvvMQdqPB_zbK2hEo-30">
          <mxGeometry x="1040" width="180" height="59" as="geometry">
            <mxRectangle width="180" height="59" as="alternateBounds" />
          </mxGeometry>
        </mxCell>
        <mxCell id="NCRFvvMQdqPB_zbK2hEo-226" style="shape=partialRectangle;html=1;whiteSpace=wrap;connectable=0;overflow=hidden;top=0;left=0;bottom=0;right=0;pointerEvents=1;fontSize=11;fontStyle=0" vertex="1" parent="NCRFvvMQdqPB_zbK2hEo-30">
          <mxGeometry x="1220" width="180" height="59" as="geometry">
            <mxRectangle width="180" height="59" as="alternateBounds" />
          </mxGeometry>
        </mxCell>
        <mxCell id="NCRFvvMQdqPB_zbK2hEo-37" style="shape=tableRow;horizontal=0;startSize=0;swimlaneHead=0;swimlaneBody=0;strokeColor=inherit;top=0;left=0;bottom=0;right=0;collapsible=0;dropTarget=0;fillColor=none;points=[[0,0.5],[1,0.5]];portConstraint=eastwest;fontSize=16;" vertex="1" parent="NCRFvvMQdqPB_zbK2hEo-1">
          <mxGeometry y="279" width="1400" height="58" as="geometry" />
        </mxCell>
        <mxCell id="NCRFvvMQdqPB_zbK2hEo-38" value="Кол-центр&amp;nbsp;&lt;br&gt;банка&amp;nbsp;&lt;br&gt;«Стандарт»" style="shape=partialRectangle;whiteSpace=wrap;connectable=0;strokeColor=inherit;overflow=hidden;fillColor=none;top=0;left=0;bottom=0;right=0;pointerEvents=1;fontSize=12;fontStyle=1;html=1;" vertex="1" parent="NCRFvvMQdqPB_zbK2hEo-37">
          <mxGeometry width="130" height="58" as="geometry">
            <mxRectangle width="130" height="58" as="alternateBounds" />
          </mxGeometry>
        </mxCell>
        <mxCell id="NCRFvvMQdqPB_zbK2hEo-94" style="shape=partialRectangle;html=1;whiteSpace=wrap;connectable=0;strokeColor=inherit;overflow=hidden;fillColor=none;top=0;left=0;bottom=0;right=0;pointerEvents=1;fontSize=16;" vertex="1" parent="NCRFvvMQdqPB_zbK2hEo-37">
          <mxGeometry x="130" width="140" height="58" as="geometry">
            <mxRectangle width="140" height="58" as="alternateBounds" />
          </mxGeometry>
        </mxCell>
        <mxCell id="NCRFvvMQdqPB_zbK2hEo-85" style="shape=partialRectangle;html=1;whiteSpace=wrap;connectable=0;strokeColor=inherit;overflow=hidden;fillColor=none;top=0;left=0;bottom=0;right=0;pointerEvents=1;fontSize=16;" vertex="1" parent="NCRFvvMQdqPB_zbK2hEo-37">
          <mxGeometry x="270" width="140" height="58" as="geometry">
            <mxRectangle width="140" height="58" as="alternateBounds" />
          </mxGeometry>
        </mxCell>
        <mxCell id="NCRFvvMQdqPB_zbK2hEo-39" style="shape=partialRectangle;html=1;whiteSpace=wrap;connectable=0;strokeColor=inherit;overflow=hidden;fillColor=none;top=0;left=0;bottom=0;right=0;pointerEvents=1;fontSize=16;" vertex="1" parent="NCRFvvMQdqPB_zbK2hEo-37">
          <mxGeometry x="410" width="140" height="58" as="geometry">
            <mxRectangle width="140" height="58" as="alternateBounds" />
          </mxGeometry>
        </mxCell>
        <mxCell id="NCRFvvMQdqPB_zbK2hEo-42" value="Передает заявки из системы кол-центра в АБС для предварительной обработки" style="shape=partialRectangle;html=1;whiteSpace=wrap;connectable=0;strokeColor=inherit;overflow=hidden;fillColor=none;top=0;left=0;bottom=0;right=0;pointerEvents=1;fontSize=11;fontStyle=0" vertex="1" parent="NCRFvvMQdqPB_zbK2hEo-37">
          <mxGeometry x="550" width="160" height="58" as="geometry">
            <mxRectangle width="160" height="58" as="alternateBounds" />
          </mxGeometry>
        </mxCell>
        <mxCell id="NCRFvvMQdqPB_zbK2hEo-43" style="shape=partialRectangle;html=1;whiteSpace=wrap;connectable=0;strokeColor=inherit;overflow=hidden;fillColor=none;top=0;left=0;bottom=0;right=0;pointerEvents=1;fontSize=16;" vertex="1" parent="NCRFvvMQdqPB_zbK2hEo-37">
          <mxGeometry x="710" width="150" height="58" as="geometry">
            <mxRectangle width="150" height="58" as="alternateBounds" />
          </mxGeometry>
        </mxCell>
        <mxCell id="NCRFvvMQdqPB_zbK2hEo-63" style="shape=partialRectangle;html=1;whiteSpace=wrap;connectable=0;strokeColor=inherit;overflow=hidden;fillColor=none;top=0;left=0;bottom=0;right=0;pointerEvents=1;fontSize=16;" vertex="1" parent="NCRFvvMQdqPB_zbK2hEo-37">
          <mxGeometry x="860" width="180" height="58" as="geometry">
            <mxRectangle width="180" height="58" as="alternateBounds" />
          </mxGeometry>
        </mxCell>
        <mxCell id="NCRFvvMQdqPB_zbK2hEo-238" value="&lt;span style=&quot;font-size: 11px; text-wrap-mode: nowrap; color: rgb(29, 29, 32); font-family: system-ui, ui-sans-serif, -apple-system, BlinkMacSystemFont, sans-serif, Inter, NotoSansHans; letter-spacing: -0.28px; text-align: start; background-color: rgb(255, 255, 255); float: none; display: inline !important;&quot;&gt;Принимает звонки,&amp;nbsp;&lt;/span&gt;&lt;div style=&quot;font-size: 11px;&quot;&gt;&lt;span style=&quot;color: rgb(29, 29, 32); font-family: system-ui, ui-sans-serif, -apple-system, BlinkMacSystemFont, sans-serif, Inter, NotoSansHans; letter-spacing: -0.28px; text-align: start; text-wrap-mode: nowrap; background-color: rgb(255, 255, 255); float: none; display: inline !important;&quot;&gt;заводит обращения&amp;nbsp;&lt;/span&gt;&lt;/div&gt;&lt;div style=&quot;font-size: 11px;&quot;&gt;&lt;span style=&quot;color: rgb(29, 29, 32); font-family: system-ui, ui-sans-serif, -apple-system, BlinkMacSystemFont, sans-serif, Inter, NotoSansHans; letter-spacing: -0.28px; text-align: start; text-wrap-mode: nowrap; background-color: rgb(255, 255, 255); float: none; display: inline !important;&quot;&gt;в системе кол-центра&lt;/span&gt;&lt;/div&gt;" style="shape=partialRectangle;html=1;whiteSpace=wrap;connectable=0;strokeColor=inherit;overflow=hidden;fillColor=none;top=0;left=0;bottom=0;right=0;pointerEvents=1;fontSize=16;" vertex="1" parent="NCRFvvMQdqPB_zbK2hEo-37">
          <mxGeometry x="1040" width="180" height="58" as="geometry">
            <mxRectangle width="180" height="58" as="alternateBounds" />
          </mxGeometry>
        </mxCell>
        <mxCell id="NCRFvvMQdqPB_zbK2hEo-227" value="&lt;span style=&quot;font-size: 11px; text-wrap-mode: nowrap; color: rgb(29, 29, 32); font-family: system-ui, ui-sans-serif, -apple-system, BlinkMacSystemFont, sans-serif, Inter, NotoSansHans; letter-spacing: -0.28px; text-align: start; background-color: rgb(255, 255, 255); float: none; display: inline !important;&quot;&gt;Может отправлять СМС&lt;/span&gt;&lt;div style=&quot;font-size: 11px;&quot;&gt;&lt;span style=&quot;color: rgb(29, 29, 32); font-family: system-ui, ui-sans-serif, -apple-system, BlinkMacSystemFont, sans-serif, Inter, NotoSansHans; letter-spacing: -0.28px; text-align: start; text-wrap-mode: nowrap; background-color: rgb(255, 255, 255); float: none; display: inline !important;&quot;&gt;&amp;nbsp;через СМС-шлюз&amp;nbsp;&lt;/span&gt;&lt;/div&gt;&lt;div style=&quot;font-size: 11px;&quot;&gt;&lt;span style=&quot;color: rgb(29, 29, 32); font-family: system-ui, ui-sans-serif, -apple-system, BlinkMacSystemFont, sans-serif, Inter, NotoSansHans; letter-spacing: -0.28px; text-align: start; text-wrap-mode: nowrap; background-color: rgb(255, 255, 255); float: none; display: inline !important;&quot;&gt;телеком-оператора&lt;/span&gt;&lt;/div&gt;" style="shape=partialRectangle;html=1;whiteSpace=wrap;connectable=0;strokeColor=inherit;overflow=hidden;fillColor=none;top=0;left=0;bottom=0;right=0;pointerEvents=1;fontSize=16;" vertex="1" parent="NCRFvvMQdqPB_zbK2hEo-37">
          <mxGeometry x="1220" width="180" height="58" as="geometry">
            <mxRectangle width="180" height="58" as="alternateBounds" />
          </mxGeometry>
        </mxCell>
        <mxCell id="NCRFvvMQdqPB_zbK2hEo-51" style="shape=tableRow;horizontal=0;startSize=0;swimlaneHead=0;swimlaneBody=0;strokeColor=inherit;top=0;left=0;bottom=0;right=0;collapsible=0;dropTarget=0;fillColor=none;points=[[0,0.5],[1,0.5]];portConstraint=eastwest;fontSize=16;" vertex="1" parent="NCRFvvMQdqPB_zbK2hEo-1">
          <mxGeometry y="337" width="1400" height="51" as="geometry" />
        </mxCell>
        <mxCell id="NCRFvvMQdqPB_zbK2hEo-52" value="Партнёрский&lt;br&gt;&amp;nbsp;кол-центр" style="shape=partialRectangle;whiteSpace=wrap;connectable=0;strokeColor=inherit;overflow=hidden;fillColor=none;top=0;left=0;bottom=0;right=0;pointerEvents=1;fontSize=12;fontStyle=1;html=1;" vertex="1" parent="NCRFvvMQdqPB_zbK2hEo-51">
          <mxGeometry width="130" height="51" as="geometry">
            <mxRectangle width="130" height="51" as="alternateBounds" />
          </mxGeometry>
        </mxCell>
        <mxCell id="NCRFvvMQdqPB_zbK2hEo-95" style="shape=partialRectangle;html=1;whiteSpace=wrap;connectable=0;strokeColor=inherit;overflow=hidden;fillColor=none;top=0;left=0;bottom=0;right=0;pointerEvents=1;fontSize=16;" vertex="1" parent="NCRFvvMQdqPB_zbK2hEo-51">
          <mxGeometry x="130" width="140" height="51" as="geometry">
            <mxRectangle width="140" height="51" as="alternateBounds" />
          </mxGeometry>
        </mxCell>
        <mxCell id="NCRFvvMQdqPB_zbK2hEo-86" style="shape=partialRectangle;html=1;whiteSpace=wrap;connectable=0;strokeColor=inherit;overflow=hidden;fillColor=none;top=0;left=0;bottom=0;right=0;pointerEvents=1;fontSize=16;" vertex="1" parent="NCRFvvMQdqPB_zbK2hEo-51">
          <mxGeometry x="270" width="140" height="51" as="geometry">
            <mxRectangle width="140" height="51" as="alternateBounds" />
          </mxGeometry>
        </mxCell>
        <mxCell id="NCRFvvMQdqPB_zbK2hEo-53" style="shape=partialRectangle;html=1;whiteSpace=wrap;connectable=0;strokeColor=inherit;overflow=hidden;fillColor=none;top=0;left=0;bottom=0;right=0;pointerEvents=1;fontSize=16;" vertex="1" parent="NCRFvvMQdqPB_zbK2hEo-51">
          <mxGeometry x="410" width="140" height="51" as="geometry">
            <mxRectangle width="140" height="51" as="alternateBounds" />
          </mxGeometry>
        </mxCell>
        <mxCell id="NCRFvvMQdqPB_zbK2hEo-56" style="shape=partialRectangle;html=1;whiteSpace=wrap;connectable=0;strokeColor=inherit;overflow=hidden;fillColor=none;top=0;left=0;bottom=0;right=0;pointerEvents=1;fontSize=16;" vertex="1" parent="NCRFvvMQdqPB_zbK2hEo-51">
          <mxGeometry x="550" width="160" height="51" as="geometry">
            <mxRectangle width="160" height="51" as="alternateBounds" />
          </mxGeometry>
        </mxCell>
        <mxCell id="NCRFvvMQdqPB_zbK2hEo-57" style="shape=partialRectangle;html=1;whiteSpace=wrap;connectable=0;strokeColor=inherit;overflow=hidden;fillColor=none;top=0;left=0;bottom=0;right=0;pointerEvents=1;fontSize=16;" vertex="1" parent="NCRFvvMQdqPB_zbK2hEo-51">
          <mxGeometry x="710" width="150" height="51" as="geometry">
            <mxRectangle width="150" height="51" as="alternateBounds" />
          </mxGeometry>
        </mxCell>
        <mxCell id="NCRFvvMQdqPB_zbK2hEo-64" style="shape=partialRectangle;html=1;whiteSpace=wrap;connectable=0;strokeColor=inherit;overflow=hidden;fillColor=none;top=0;left=0;bottom=0;right=0;pointerEvents=1;fontSize=16;" vertex="1" parent="NCRFvvMQdqPB_zbK2hEo-51">
          <mxGeometry x="860" width="180" height="51" as="geometry">
            <mxRectangle width="180" height="51" as="alternateBounds" />
          </mxGeometry>
        </mxCell>
        <mxCell id="NCRFvvMQdqPB_zbK2hEo-239" value="&lt;span style=&quot;font-size: 11px;&quot;&gt;Работает по&amp;nbsp;&lt;/span&gt;&lt;div style=&quot;font-size: 11px;&quot;&gt;скриптам&lt;/div&gt;" style="shape=partialRectangle;html=1;whiteSpace=wrap;connectable=0;strokeColor=inherit;overflow=hidden;fillColor=none;top=0;left=0;bottom=0;right=0;pointerEvents=1;fontSize=16;" vertex="1" parent="NCRFvvMQdqPB_zbK2hEo-51">
          <mxGeometry x="1040" width="180" height="51" as="geometry">
            <mxRectangle width="180" height="51" as="alternateBounds" />
          </mxGeometry>
        </mxCell>
        <mxCell id="NCRFvvMQdqPB_zbK2hEo-228" value="&lt;br style=&quot;font-size: 11px;&quot;&gt;&lt;span style=&quot;font-size: 11px; text-wrap-mode: nowrap; color: rgb(29, 29, 32); font-family: system-ui, ui-sans-serif, -apple-system, BlinkMacSystemFont, sans-serif, Inter, NotoSansHans; letter-spacing: -0.28px; text-align: start; background-color: rgb(255, 255, 255); float: none; display: inline !important;&quot;&gt;Может отправлять СМС&lt;/span&gt;&lt;div style=&quot;font-size: 11px;&quot;&gt;&lt;span style=&quot;color: rgb(29, 29, 32); font-family: system-ui, ui-sans-serif, -apple-system, BlinkMacSystemFont, sans-serif, Inter, NotoSansHans; letter-spacing: -0.28px; text-align: start; text-wrap-mode: nowrap; background-color: rgb(255, 255, 255); float: none; display: inline !important;&quot;&gt;&amp;nbsp;через СМС-шлюз&amp;nbsp;&lt;/span&gt;&lt;/div&gt;&lt;div style=&quot;font-size: 11px;&quot;&gt;&lt;span style=&quot;color: rgb(29, 29, 32); font-family: system-ui, ui-sans-serif, -apple-system, BlinkMacSystemFont, sans-serif, Inter, NotoSansHans; letter-spacing: -0.28px; text-align: start; text-wrap-mode: nowrap; background-color: rgb(255, 255, 255); float: none; display: inline !important;&quot;&gt;телеком-оператора&lt;/span&gt;&lt;br&gt;&lt;/div&gt;" style="shape=partialRectangle;html=1;whiteSpace=wrap;connectable=0;strokeColor=inherit;overflow=hidden;fillColor=none;top=0;left=0;bottom=0;right=0;pointerEvents=1;fontSize=16;" vertex="1" parent="NCRFvvMQdqPB_zbK2hEo-51">
          <mxGeometry x="1220" width="180" height="51" as="geometry">
            <mxRectangle width="180" height="51" as="alternateBounds" />
          </mxGeometry>
        </mxCell>
        <mxCell id="NCRFvvMQdqPB_zbK2hEo-120" style="shape=tableRow;horizontal=0;startSize=0;swimlaneHead=0;swimlaneBody=0;strokeColor=inherit;top=0;left=0;bottom=0;right=0;collapsible=0;dropTarget=0;fillColor=none;points=[[0,0.5],[1,0.5]];portConstraint=eastwest;fontSize=16;" vertex="1" parent="NCRFvvMQdqPB_zbK2hEo-1">
          <mxGeometry y="388" width="1400" height="82" as="geometry" />
        </mxCell>
        <mxCell id="NCRFvvMQdqPB_zbK2hEo-121" value="Управление по работе с &lt;br&gt;клиентами" style="shape=partialRectangle;whiteSpace=wrap;connectable=0;strokeColor=inherit;overflow=hidden;fillColor=none;top=0;left=0;bottom=0;right=0;pointerEvents=1;fontSize=12;fontStyle=1;html=1;" vertex="1" parent="NCRFvvMQdqPB_zbK2hEo-120">
          <mxGeometry width="130" height="82" as="geometry">
            <mxRectangle width="130" height="82" as="alternateBounds" />
          </mxGeometry>
        </mxCell>
        <mxCell id="NCRFvvMQdqPB_zbK2hEo-122" style="shape=partialRectangle;html=1;whiteSpace=wrap;connectable=0;strokeColor=inherit;overflow=hidden;fillColor=none;top=0;left=0;bottom=0;right=0;pointerEvents=1;fontSize=16;" vertex="1" parent="NCRFvvMQdqPB_zbK2hEo-120">
          <mxGeometry x="130" width="140" height="82" as="geometry">
            <mxRectangle width="140" height="82" as="alternateBounds" />
          </mxGeometry>
        </mxCell>
        <mxCell id="NCRFvvMQdqPB_zbK2hEo-123" style="shape=partialRectangle;html=1;whiteSpace=wrap;connectable=0;strokeColor=inherit;overflow=hidden;fillColor=none;top=0;left=0;bottom=0;right=0;pointerEvents=1;fontSize=16;" vertex="1" parent="NCRFvvMQdqPB_zbK2hEo-120">
          <mxGeometry x="270" width="140" height="82" as="geometry">
            <mxRectangle width="140" height="82" as="alternateBounds" />
          </mxGeometry>
        </mxCell>
        <mxCell id="NCRFvvMQdqPB_zbK2hEo-124" style="shape=partialRectangle;html=1;whiteSpace=wrap;connectable=0;strokeColor=inherit;overflow=hidden;fillColor=none;top=0;left=0;bottom=0;right=0;pointerEvents=1;fontSize=16;" vertex="1" parent="NCRFvvMQdqPB_zbK2hEo-120">
          <mxGeometry x="410" width="140" height="82" as="geometry">
            <mxRectangle width="140" height="82" as="alternateBounds" />
          </mxGeometry>
        </mxCell>
        <mxCell id="NCRFvvMQdqPB_zbK2hEo-127" style="shape=partialRectangle;html=1;whiteSpace=wrap;connectable=0;strokeColor=inherit;overflow=hidden;fillColor=none;top=0;left=0;bottom=0;right=0;pointerEvents=1;fontSize=16;" vertex="1" parent="NCRFvvMQdqPB_zbK2hEo-120">
          <mxGeometry x="550" width="160" height="82" as="geometry">
            <mxRectangle width="160" height="82" as="alternateBounds" />
          </mxGeometry>
        </mxCell>
        <mxCell id="NCRFvvMQdqPB_zbK2hEo-128" style="shape=partialRectangle;html=1;whiteSpace=wrap;connectable=0;strokeColor=inherit;overflow=hidden;fillColor=none;top=0;left=0;bottom=0;right=0;pointerEvents=1;fontSize=16;" vertex="1" parent="NCRFvvMQdqPB_zbK2hEo-120">
          <mxGeometry x="710" width="150" height="82" as="geometry">
            <mxRectangle width="150" height="82" as="alternateBounds" />
          </mxGeometry>
        </mxCell>
        <mxCell id="NCRFvvMQdqPB_zbK2hEo-129" style="shape=partialRectangle;html=1;whiteSpace=wrap;connectable=0;strokeColor=inherit;overflow=hidden;fillColor=none;top=0;left=0;bottom=0;right=0;pointerEvents=1;fontSize=16;" vertex="1" parent="NCRFvvMQdqPB_zbK2hEo-120">
          <mxGeometry x="860" width="180" height="82" as="geometry">
            <mxRectangle width="180" height="82" as="alternateBounds" />
          </mxGeometry>
        </mxCell>
        <mxCell id="NCRFvvMQdqPB_zbK2hEo-241" style="shape=partialRectangle;html=1;whiteSpace=wrap;connectable=0;strokeColor=inherit;overflow=hidden;fillColor=none;top=0;left=0;bottom=0;right=0;pointerEvents=1;fontSize=16;" vertex="1" parent="NCRFvvMQdqPB_zbK2hEo-120">
          <mxGeometry x="1040" width="180" height="82" as="geometry">
            <mxRectangle width="180" height="82" as="alternateBounds" />
          </mxGeometry>
        </mxCell>
        <mxCell id="NCRFvvMQdqPB_zbK2hEo-230" style="shape=partialRectangle;html=1;whiteSpace=wrap;connectable=0;strokeColor=inherit;overflow=hidden;fillColor=none;top=0;left=0;bottom=0;right=0;pointerEvents=1;fontSize=16;" vertex="1" parent="NCRFvvMQdqPB_zbK2hEo-120">
          <mxGeometry x="1220" width="180" height="82" as="geometry">
            <mxRectangle width="180" height="82" as="alternateBounds" />
          </mxGeometry>
        </mxCell>
        <mxCell id="NCRFvvMQdqPB_zbK2hEo-130" style="shape=tableRow;horizontal=0;startSize=0;swimlaneHead=0;swimlaneBody=0;strokeColor=inherit;top=0;left=0;bottom=0;right=0;collapsible=0;dropTarget=0;fillColor=none;points=[[0,0.5],[1,0.5]];portConstraint=eastwest;fontSize=16;" vertex="1" parent="NCRFvvMQdqPB_zbK2hEo-1">
          <mxGeometry y="470" width="1400" height="81" as="geometry" />
        </mxCell>
        <mxCell id="NCRFvvMQdqPB_zbK2hEo-131" value="&lt;br&gt;Команда&lt;br&gt;&amp;nbsp;цифровой&lt;br&gt;&amp;nbsp;трансформации&lt;br&gt;&amp;nbsp;розничного&lt;br&gt;&amp;nbsp;бизнеса&lt;br&gt;&lt;br&gt;" style="shape=partialRectangle;whiteSpace=wrap;connectable=0;strokeColor=inherit;overflow=hidden;fillColor=none;top=0;left=0;bottom=0;right=0;pointerEvents=1;fontSize=12;fontStyle=1;html=1;" vertex="1" parent="NCRFvvMQdqPB_zbK2hEo-130">
          <mxGeometry width="130" height="81" as="geometry">
            <mxRectangle width="130" height="81" as="alternateBounds" />
          </mxGeometry>
        </mxCell>
        <mxCell id="NCRFvvMQdqPB_zbK2hEo-132" style="shape=partialRectangle;html=1;whiteSpace=wrap;connectable=0;strokeColor=inherit;overflow=hidden;fillColor=none;top=0;left=0;bottom=0;right=0;pointerEvents=1;fontSize=16;" vertex="1" parent="NCRFvvMQdqPB_zbK2hEo-130">
          <mxGeometry x="130" width="140" height="81" as="geometry">
            <mxRectangle width="140" height="81" as="alternateBounds" />
          </mxGeometry>
        </mxCell>
        <mxCell id="NCRFvvMQdqPB_zbK2hEo-133" style="shape=partialRectangle;html=1;whiteSpace=wrap;connectable=0;strokeColor=inherit;overflow=hidden;fillColor=none;top=0;left=0;bottom=0;right=0;pointerEvents=1;fontSize=16;" vertex="1" parent="NCRFvvMQdqPB_zbK2hEo-130">
          <mxGeometry x="270" width="140" height="81" as="geometry">
            <mxRectangle width="140" height="81" as="alternateBounds" />
          </mxGeometry>
        </mxCell>
        <mxCell id="NCRFvvMQdqPB_zbK2hEo-134" style="shape=partialRectangle;html=1;whiteSpace=wrap;connectable=0;strokeColor=inherit;overflow=hidden;fillColor=none;top=0;left=0;bottom=0;right=0;pointerEvents=1;fontSize=16;" vertex="1" parent="NCRFvvMQdqPB_zbK2hEo-130">
          <mxGeometry x="410" width="140" height="81" as="geometry">
            <mxRectangle width="140" height="81" as="alternateBounds" />
          </mxGeometry>
        </mxCell>
        <mxCell id="NCRFvvMQdqPB_zbK2hEo-137" style="shape=partialRectangle;html=1;whiteSpace=wrap;connectable=0;strokeColor=inherit;overflow=hidden;fillColor=none;top=0;left=0;bottom=0;right=0;pointerEvents=1;fontSize=16;" vertex="1" parent="NCRFvvMQdqPB_zbK2hEo-130">
          <mxGeometry x="550" width="160" height="81" as="geometry">
            <mxRectangle width="160" height="81" as="alternateBounds" />
          </mxGeometry>
        </mxCell>
        <mxCell id="NCRFvvMQdqPB_zbK2hEo-138" style="shape=partialRectangle;html=1;whiteSpace=wrap;connectable=0;strokeColor=inherit;overflow=hidden;fillColor=none;top=0;left=0;bottom=0;right=0;pointerEvents=1;fontSize=16;" vertex="1" parent="NCRFvvMQdqPB_zbK2hEo-130">
          <mxGeometry x="710" width="150" height="81" as="geometry">
            <mxRectangle width="150" height="81" as="alternateBounds" />
          </mxGeometry>
        </mxCell>
        <mxCell id="NCRFvvMQdqPB_zbK2hEo-139" style="shape=partialRectangle;html=1;whiteSpace=wrap;connectable=0;strokeColor=inherit;overflow=hidden;fillColor=none;top=0;left=0;bottom=0;right=0;pointerEvents=1;fontSize=16;" vertex="1" parent="NCRFvvMQdqPB_zbK2hEo-130">
          <mxGeometry x="860" width="180" height="81" as="geometry">
            <mxRectangle width="180" height="81" as="alternateBounds" />
          </mxGeometry>
        </mxCell>
        <mxCell id="NCRFvvMQdqPB_zbK2hEo-242" style="shape=partialRectangle;html=1;whiteSpace=wrap;connectable=0;strokeColor=inherit;overflow=hidden;fillColor=none;top=0;left=0;bottom=0;right=0;pointerEvents=1;fontSize=16;" vertex="1" parent="NCRFvvMQdqPB_zbK2hEo-130">
          <mxGeometry x="1040" width="180" height="81" as="geometry">
            <mxRectangle width="180" height="81" as="alternateBounds" />
          </mxGeometry>
        </mxCell>
        <mxCell id="NCRFvvMQdqPB_zbK2hEo-231" style="shape=partialRectangle;html=1;whiteSpace=wrap;connectable=0;strokeColor=inherit;overflow=hidden;fillColor=none;top=0;left=0;bottom=0;right=0;pointerEvents=1;fontSize=16;" vertex="1" parent="NCRFvvMQdqPB_zbK2hEo-130">
          <mxGeometry x="1220" width="180" height="81" as="geometry">
            <mxRectangle width="180" height="81" as="alternateBounds" />
          </mxGeometry>
        </mxCell>
        <mxCell id="NCRFvvMQdqPB_zbK2hEo-212" style="shape=tableRow;horizontal=0;startSize=0;swimlaneHead=0;swimlaneBody=0;strokeColor=inherit;top=0;left=0;bottom=0;right=0;collapsible=0;dropTarget=0;fillColor=none;points=[[0,0.5],[1,0.5]];portConstraint=eastwest;fontSize=16;" vertex="1" parent="NCRFvvMQdqPB_zbK2hEo-1">
          <mxGeometry y="551" width="1400" height="81" as="geometry" />
        </mxCell>
        <mxCell id="NCRFvvMQdqPB_zbK2hEo-213" value="Управление &lt;br&gt;рекламы и&amp;nbsp;&lt;br&gt;маркетинга" style="shape=partialRectangle;whiteSpace=wrap;connectable=0;strokeColor=inherit;overflow=hidden;fillColor=none;top=0;left=0;bottom=0;right=0;pointerEvents=1;fontSize=12;fontStyle=1;html=1;" vertex="1" parent="NCRFvvMQdqPB_zbK2hEo-212">
          <mxGeometry width="130" height="81" as="geometry">
            <mxRectangle width="130" height="81" as="alternateBounds" />
          </mxGeometry>
        </mxCell>
        <mxCell id="NCRFvvMQdqPB_zbK2hEo-214" style="shape=partialRectangle;html=1;whiteSpace=wrap;connectable=0;strokeColor=inherit;overflow=hidden;fillColor=none;top=0;left=0;bottom=0;right=0;pointerEvents=1;fontSize=16;" vertex="1" parent="NCRFvvMQdqPB_zbK2hEo-212">
          <mxGeometry x="130" width="140" height="81" as="geometry">
            <mxRectangle width="140" height="81" as="alternateBounds" />
          </mxGeometry>
        </mxCell>
        <mxCell id="NCRFvvMQdqPB_zbK2hEo-215" style="shape=partialRectangle;html=1;whiteSpace=wrap;connectable=0;strokeColor=inherit;overflow=hidden;fillColor=none;top=0;left=0;bottom=0;right=0;pointerEvents=1;fontSize=16;" vertex="1" parent="NCRFvvMQdqPB_zbK2hEo-212">
          <mxGeometry x="270" width="140" height="81" as="geometry">
            <mxRectangle width="140" height="81" as="alternateBounds" />
          </mxGeometry>
        </mxCell>
        <mxCell id="NCRFvvMQdqPB_zbK2hEo-216" style="shape=partialRectangle;html=1;whiteSpace=wrap;connectable=0;strokeColor=inherit;overflow=hidden;fillColor=none;top=0;left=0;bottom=0;right=0;pointerEvents=1;fontSize=16;" vertex="1" parent="NCRFvvMQdqPB_zbK2hEo-212">
          <mxGeometry x="410" width="140" height="81" as="geometry">
            <mxRectangle width="140" height="81" as="alternateBounds" />
          </mxGeometry>
        </mxCell>
        <mxCell id="NCRFvvMQdqPB_zbK2hEo-219" style="shape=partialRectangle;html=1;whiteSpace=wrap;connectable=0;strokeColor=inherit;overflow=hidden;fillColor=none;top=0;left=0;bottom=0;right=0;pointerEvents=1;fontSize=16;" vertex="1" parent="NCRFvvMQdqPB_zbK2hEo-212">
          <mxGeometry x="550" width="160" height="81" as="geometry">
            <mxRectangle width="160" height="81" as="alternateBounds" />
          </mxGeometry>
        </mxCell>
        <mxCell id="NCRFvvMQdqPB_zbK2hEo-220" style="shape=partialRectangle;html=1;whiteSpace=wrap;connectable=0;strokeColor=inherit;overflow=hidden;fillColor=none;top=0;left=0;bottom=0;right=0;pointerEvents=1;fontSize=16;" vertex="1" parent="NCRFvvMQdqPB_zbK2hEo-212">
          <mxGeometry x="710" width="150" height="81" as="geometry">
            <mxRectangle width="150" height="81" as="alternateBounds" />
          </mxGeometry>
        </mxCell>
        <mxCell id="NCRFvvMQdqPB_zbK2hEo-221" style="shape=partialRectangle;html=1;whiteSpace=wrap;connectable=0;strokeColor=inherit;overflow=hidden;fillColor=none;top=0;left=0;bottom=0;right=0;pointerEvents=1;fontSize=16;" vertex="1" parent="NCRFvvMQdqPB_zbK2hEo-212">
          <mxGeometry x="860" width="180" height="81" as="geometry">
            <mxRectangle width="180" height="81" as="alternateBounds" />
          </mxGeometry>
        </mxCell>
        <mxCell id="NCRFvvMQdqPB_zbK2hEo-243" style="shape=partialRectangle;html=1;whiteSpace=wrap;connectable=0;strokeColor=inherit;overflow=hidden;fillColor=none;top=0;left=0;bottom=0;right=0;pointerEvents=1;fontSize=16;" vertex="1" parent="NCRFvvMQdqPB_zbK2hEo-212">
          <mxGeometry x="1040" width="180" height="81" as="geometry">
            <mxRectangle width="180" height="81" as="alternateBounds" />
          </mxGeometry>
        </mxCell>
        <mxCell id="NCRFvvMQdqPB_zbK2hEo-232" style="shape=partialRectangle;html=1;whiteSpace=wrap;connectable=0;strokeColor=inherit;overflow=hidden;fillColor=none;top=0;left=0;bottom=0;right=0;pointerEvents=1;fontSize=16;" vertex="1" parent="NCRFvvMQdqPB_zbK2hEo-212">
          <mxGeometry x="1220" width="180" height="81" as="geometry">
            <mxRectangle width="180" height="81" as="alternateBounds" />
          </mxGeometry>
        </mxCell>
        <mxCell id="NCRFvvMQdqPB_zbK2hEo-70" value="" style="rounded=0;whiteSpace=wrap;html=1;fontSize=100;labelBackgroundColor=default;fillColor=#1ba1e2;strokeColor=#006EAF;opacity=30;fontColor=#ffffff;" vertex="1" parent="1">
          <mxGeometry x="-8000" y="-4300" width="360" height="110" as="geometry" />
        </mxCell>
        <mxCell id="NCRFvvMQdqPB_zbK2hEo-71" value="" style="rounded=0;whiteSpace=wrap;html=1;opacity=30;fillColor=#60a917;fontColor=#ffffff;strokeColor=#2D7600;" vertex="1" parent="1">
          <mxGeometry x="-8700" y="-4530" width="700" height="260" as="geometry" />
        </mxCell>
        <mxCell id="NCRFvvMQdqPB_zbK2hEo-98" value="" style="rounded=0;whiteSpace=wrap;html=1;fillColor=#e3c800;fontColor=#000000;strokeColor=#B09500;" vertex="1" parent="1">
          <mxGeometry x="-8910" y="-4028" width="140" height="80" as="geometry" />
        </mxCell>
        <mxCell id="NCRFvvMQdqPB_zbK2hEo-109" value="&lt;div&gt;&lt;br&gt;&lt;/div&gt;" style="rounded=0;whiteSpace=wrap;html=1;opacity=40;fillColor=#a0522d;fontColor=#ffffff;strokeColor=#6D1F00;" vertex="1" parent="1">
          <mxGeometry x="-8770" y="-4190" width="140" height="80" as="geometry" />
        </mxCell>
        <mxCell id="NCRFvvMQdqPB_zbK2hEo-244" value="" style="rounded=0;whiteSpace=wrap;html=1;opacity=30;fillColor=#60a917;fontColor=#ffffff;strokeColor=#2D7600;" vertex="1" parent="1">
          <mxGeometry x="-8435" y="-3885" width="110" height="40" as="geometry" />
        </mxCell>
        <mxCell id="NCRFvvMQdqPB_zbK2hEo-245" value="Легенда" style="text;html=1;align=center;verticalAlign=middle;whiteSpace=wrap;rounded=0;fontSize=21;fontStyle=1" vertex="1" parent="1">
          <mxGeometry x="-9020" y="-3930" width="60" height="30" as="geometry" />
        </mxCell>
        <mxCell id="NCRFvvMQdqPB_zbK2hEo-246" value="" style="rounded=0;whiteSpace=wrap;html=1;fontSize=100;labelBackgroundColor=default;fillColor=#1ba1e2;strokeColor=#006EAF;opacity=30;fontColor=#ffffff;" vertex="1" parent="1">
          <mxGeometry x="-8190" y="-3885" width="110" height="40" as="geometry" />
        </mxCell>
        <mxCell id="NCRFvvMQdqPB_zbK2hEo-247" value="&lt;div&gt;&lt;br&gt;&lt;/div&gt;" style="rounded=0;whiteSpace=wrap;html=1;opacity=40;fillColor=#a0522d;fontColor=#ffffff;strokeColor=#6D1F00;" vertex="1" parent="1">
          <mxGeometry x="-8755" y="-3880" width="110" height="35" as="geometry" />
        </mxCell>
        <mxCell id="NCRFvvMQdqPB_zbK2hEo-250" value="АБС&amp;nbsp;" style="text;html=1;align=center;verticalAlign=middle;whiteSpace=wrap;rounded=0;fontStyle=1;fontSize=18;" vertex="1" parent="1">
          <mxGeometry x="-8305" y="-3880" width="60" height="30" as="geometry" />
        </mxCell>
        <mxCell id="NCRFvvMQdqPB_zbK2hEo-251" value="&lt;b&gt;&lt;font style=&quot;font-size: 18px;&quot;&gt;CRM&lt;/font&gt;&lt;/b&gt;" style="text;html=1;align=center;verticalAlign=middle;whiteSpace=wrap;rounded=0;" vertex="1" parent="1">
          <mxGeometry x="-8060" y="-3880" width="60" height="30" as="geometry" />
        </mxCell>
        <mxCell id="NCRFvvMQdqPB_zbK2hEo-252" value="&lt;b&gt;&lt;font style=&quot;font-size: 18px;&quot;&gt;Интернет-банк&lt;/font&gt;&lt;/b&gt;" style="text;html=1;align=center;verticalAlign=middle;whiteSpace=wrap;rounded=0;" vertex="1" parent="1">
          <mxGeometry x="-8631" y="-3880" width="140" height="30" as="geometry" />
        </mxCell>
        <mxCell id="NCRFvvMQdqPB_zbK2hEo-254" value="" style="rounded=0;whiteSpace=wrap;html=1;fillColor=#e3c800;fontColor=#000000;strokeColor=#B09500;" vertex="1" parent="1">
          <mxGeometry x="-9040" y="-3885" width="110" height="40" as="geometry" />
        </mxCell>
        <mxCell id="NCRFvvMQdqPB_zbK2hEo-255" value="&lt;b&gt;&lt;font style=&quot;font-size: 18px;&quot;&gt;Сайт банка&lt;/font&gt;&lt;/b&gt;" style="text;html=1;align=center;verticalAlign=middle;whiteSpace=wrap;rounded=0;" vertex="1" parent="1">
          <mxGeometry x="-8928" y="-3880" width="120" height="30" as="geometry" />
        </mxCell>
      </root>
    </mxGraphModel>
  </diagram>
</mxfile>
